<svg width="222" height="175" viewBox="0 0 222 175" fill="none" xmlns="http://www.w3.org/2000/svg">
<g opacity="0.35">
<g opacity="0.4">
<rect width="45.5732" height="50.9431" transform="matrix(0.899632 0.436649 0.436649 -0.899632 76.8271 114.836)" fill="#85B1F3"/>
<path d="M117.827 134.736L131.576 129.099L153.82 83.269L140.071 88.906L117.827 134.736Z" fill="#3E82E7"/>
<path d="M99.0723 69.0068L140.071 88.9063L153.82 83.2692L112.821 63.3698L99.0723 69.0068Z" fill="#B7D4FF"/>
</g>
<g opacity="0.4">
<rect width="31.8073" height="35.5552" transform="matrix(0.899632 0.436649 0.436649 -0.899632 167.291 83.0706)" fill="#85B1F3"/>
<path d="M195.906 96.96L205.502 93.0256L221.027 61.039L211.431 64.9734L195.906 96.96Z" fill="#3E82E7"/>
<path d="M182.816 51.0848L211.431 64.9735L221.027 61.0391L192.412 47.1505L182.816 51.0848Z" fill="#B7D4FF"/>
</g>
<g opacity="0.4">
<rect width="20.5583" height="22.9807" transform="matrix(0.899632 0.436649 0.436649 -0.899632 142.43 40.2052)" fill="#85B1F3"/>
<path d="M160.925 49.1827L167.127 46.6398L177.161 25.9656L170.959 28.5085L160.925 49.1827Z" fill="#3E82E7"/>
<path d="M152.464 19.5319L170.959 28.5086L177.161 25.9657L158.666 16.9889L152.464 19.5319Z" fill="#B7D4FF"/>
</g>
<g opacity="0.4">
<rect width="20.5583" height="22.9807" transform="matrix(0.899632 0.436649 0.436649 -0.899632 0 25.1681)" fill="#85B1F3"/>
<path d="M18.4951 34.1454L24.6972 31.6025L34.7317 10.9283L28.5296 13.4712L18.4951 34.1454Z" fill="#3E82E7"/>
<path d="M10.0342 4.49438L28.5291 13.4712L34.7312 10.9282L16.2362 1.95147L10.0342 4.49438Z" fill="#B7D4FF"/>
</g>
<g opacity="0.4">
<rect width="20.5583" height="22.9807" transform="matrix(0.899632 0.436649 0.436649 -0.899632 165.335 163.447)" fill="#85B1F3"/>
<path d="M183.83 172.424L190.032 169.881L200.067 149.207L193.865 151.75L183.83 172.424Z" fill="#3E82E7"/>
<path d="M175.369 142.773L193.864 151.75L200.066 149.207L181.571 140.23L175.369 142.773Z" fill="#B7D4FF"/>
</g>
<g opacity="0.4">
<rect width="14.74" height="16.4768" transform="matrix(0.899632 0.436649 0.436649 -0.899632 166.298 125.134)" fill="#85B1F3"/>
<path d="M179.559 131.571L184.005 129.748L191.2 114.925L186.753 116.748L179.559 131.571Z" fill="#3E82E7"/>
<path d="M173.492 110.312L186.753 116.748L191.2 114.925L177.939 108.488L173.492 110.312Z" fill="#B7D4FF"/>
</g>
<g opacity="0.4">
<rect width="14.74" height="16.4768" transform="matrix(0.899632 0.436649 0.436649 -0.899632 77.5166 160.825)" fill="#85B1F3"/>
<path d="M90.7773 167.261L95.2241 165.438L102.419 150.615L97.9719 152.438L90.7773 167.261Z" fill="#3E82E7"/>
<path d="M84.7109 146.002L97.9715 152.438L102.418 150.615L89.1577 144.179L84.7109 146.002Z" fill="#B7D4FF"/>
</g>
</g>
</svg>
