<svg width="221" height="220" viewBox="0 0 221 220" fill="none" xmlns="http://www.w3.org/2000/svg">
<path d="M219.669 126.336C216.164 58.436 159.893 3.17035 91.8096 0.578763C29.6974 -1.75367 -23.3933 38.3512 -40.5927 94.1999C-43.7729 104.566 -35.66 114.933 -24.8212 114.933C-16.254 114.933 -8.59544 109.49 -5.80461 101.392C7.43562 63.2304 43.8462 35.8244 86.6173 35.8244C134.321 35.8244 173.912 69.9038 182.609 114.933H150.287C150.287 114.933 150.222 114.673 150.157 114.544C149.963 113.831 149.703 113.119 149.444 112.406C149.184 111.693 148.989 110.916 148.73 110.203C148.535 109.749 148.34 109.296 148.145 108.842C147.821 108 147.432 107.158 147.042 106.316C146.782 105.797 146.588 105.214 146.328 104.696C146.133 104.242 145.809 103.854 145.614 103.4C144.316 100.808 142.823 98.2817 141.201 95.9493C141.071 95.8197 141.006 95.6253 140.876 95.4957C139.903 94.1999 138.994 92.9041 137.956 91.6731C137.891 91.6083 137.826 91.4788 137.761 91.414C136.723 90.183 135.619 88.952 134.516 87.7858C134.321 87.5914 134.126 87.4618 133.997 87.2674C133.477 86.6843 132.893 86.166 132.309 85.6477C131.53 84.935 130.751 84.1575 129.908 83.5096C129.194 82.8617 128.415 82.2786 127.636 81.6307C127.441 81.5011 127.247 81.3068 127.052 81.1772C126.792 80.9828 126.533 80.7237 126.208 80.5293C125.819 80.2053 125.364 79.9462 124.91 79.6222C124.261 79.1687 123.547 78.6504 122.833 78.1969C122.639 78.0673 122.509 77.9377 122.379 77.8729C121.73 77.4194 121.016 77.0954 120.367 76.7067C119.328 76.0588 118.225 75.4757 117.187 74.8926C116.148 74.3095 115.045 73.7912 114.006 73.2729C113.812 73.2081 113.552 73.1433 113.357 73.0137C111.605 72.2362 109.853 71.5883 108.1 71.0052C107.906 70.9404 107.711 70.8108 107.451 70.746C107.386 70.746 107.321 70.746 107.257 70.746C106.543 70.4869 105.829 70.2925 105.115 70.0981C104.466 69.9038 103.817 69.7094 103.168 69.515H103.038C102.583 69.3855 102.064 69.3207 101.61 69.1911C100.766 68.9967 99.9225 68.8024 99.0138 68.608H98.884C98.235 68.4784 97.586 68.3488 97.0018 68.284C96.9369 68.2192 96.8071 68.2192 96.7422 68.2192C96.0932 68.0897 95.4442 68.0897 94.86 68.0249C94.0812 67.9601 93.3673 67.8305 92.5884 67.7657C92.4586 67.7657 92.3937 67.7657 92.2639 67.7657C90.4466 67.5714 88.5644 67.5066 86.6823 67.5066C84.5404 67.5066 82.4635 67.6361 80.3867 67.8305C79.7376 67.8305 79.0886 67.9601 78.5045 68.0897C77.0766 68.284 75.6487 68.4784 74.2858 68.7376C73.5718 68.8671 72.8579 68.9967 72.2089 69.1911C70.8459 69.515 69.5478 69.839 68.2498 70.2277C67.6007 70.4221 66.9517 70.6165 66.3027 70.8108C64.8748 71.2644 63.447 71.7827 62.0191 72.3658C61.5648 72.5602 61.1104 72.6897 60.721 72.8841C58.9037 73.6616 57.0865 74.5686 55.3341 75.4757C55.0745 75.6053 54.8149 75.7997 54.5552 75.9292C53.0625 76.7715 51.6346 77.6138 50.2716 78.5208C49.7524 78.9096 49.2332 79.2335 48.6491 79.6222C47.5457 80.3997 46.5073 81.1772 45.4688 82.0195C44.8847 82.473 44.3655 82.9265 43.7813 83.38C42.8078 84.2223 41.8991 85.0646 40.9905 85.9068C40.4713 86.4252 39.952 86.8787 39.4328 87.397C38.4593 88.3689 37.5506 89.4055 36.642 90.4421C36.2526 90.8957 35.8632 91.2844 35.4737 91.7379C34.3055 93.1633 33.2021 94.6535 32.0988 96.2084C31.6445 96.8563 31.1901 97.569 30.8007 98.2817C30.2166 99.2535 29.6325 100.161 29.0483 101.132C28.594 101.975 28.1397 102.817 27.6854 103.659C27.231 104.566 26.7767 105.473 26.3873 106.38C25.9979 107.287 25.6085 108.195 25.2191 109.102C24.8296 110.009 24.5051 110.916 24.1806 111.888C23.8561 112.859 23.5316 113.766 23.2071 114.738C23.2071 114.868 23.1422 114.997 23.0773 115.127C23.0124 115.386 23.0123 115.645 22.9474 115.84C22.2984 118.172 21.7792 120.505 21.3898 122.967C21.26 123.679 21.1302 124.457 21.0653 125.169C20.6758 127.955 20.4811 130.741 20.4811 133.657C20.4811 136.572 20.7407 139.358 21.0653 142.144C21.1302 142.922 21.26 143.634 21.3898 144.347C21.7792 146.809 22.2984 149.142 22.9474 151.474C22.9474 151.668 23.0124 151.928 23.0773 152.187C23.0773 152.316 23.1422 152.381 23.2071 152.511C23.5316 153.547 23.8561 154.519 24.1806 155.491C24.5051 156.398 24.7647 157.24 25.1542 158.083C25.5436 159.054 25.933 160.026 26.3873 160.933C26.7767 161.776 27.1662 162.618 27.6205 163.46C28.0748 164.367 28.5291 165.274 29.0483 166.181C29.5027 167.024 30.0868 167.866 30.606 168.708C31.1252 169.486 31.5796 170.328 32.1637 171.105C33.2021 172.596 34.3055 174.021 35.4088 175.446C35.9281 176.029 36.4473 176.612 36.9665 177.196C37.7453 178.103 38.5242 178.945 39.3679 179.852C39.952 180.435 40.5362 181.018 41.1852 181.601C42.0289 182.379 42.8727 183.156 43.7164 183.869C44.3655 184.387 44.9496 184.906 45.5986 185.424C46.5722 186.201 47.4808 186.914 48.5193 187.562C49.1034 188.015 49.7524 188.469 50.3365 188.858C51.5697 189.7 52.9327 190.477 54.2307 191.19C54.6201 191.385 55.0096 191.644 55.399 191.838C57.1514 192.745 58.9037 193.587 60.721 194.365C61.2402 194.559 61.7595 194.754 62.2787 194.948C63.6417 195.466 65.0046 195.985 66.3676 196.438C67.0166 196.632 67.7306 196.827 68.3796 197.021C69.6776 197.41 70.9757 197.734 72.2738 197.993C72.9877 198.123 73.7016 198.317 74.4156 198.447C75.7785 198.706 77.2064 198.9 78.6343 199.095C79.2833 199.159 79.9323 199.289 80.5814 199.354C82.6583 199.548 84.7352 199.678 86.8121 199.678C88.6942 199.678 90.5764 199.613 92.3937 199.418C92.5235 199.418 92.6533 199.418 92.7182 199.418C93.4971 199.354 94.211 199.224 94.9898 199.159C95.6389 199.094 96.2879 199.03 96.9369 198.965C97.0018 198.965 97.1316 198.965 97.1965 198.9C97.7807 198.835 98.4297 198.706 99.0787 198.576C99.1436 198.576 99.2085 198.576 99.2734 198.576C100.117 198.447 100.896 198.252 101.74 198.058C102.259 197.928 102.778 197.864 103.297 197.734H103.427C104.076 197.54 104.79 197.345 105.439 197.151C106.088 196.956 106.737 196.762 107.386 196.568C107.516 196.568 107.581 196.568 107.711 196.503C108.165 196.373 108.555 196.179 109.009 195.985C110.567 195.401 112.189 194.818 113.682 194.17C114.071 194.041 114.396 193.847 114.785 193.717C115.499 193.393 116.148 193.004 116.862 192.616C117.381 192.356 117.966 192.097 118.55 191.838C118.55 191.838 118.615 191.838 118.679 191.773C119.913 191.061 121.081 190.348 122.249 189.635C122.574 189.441 122.898 189.182 123.288 188.987C124.002 188.534 124.651 188.08 125.3 187.562C125.884 187.173 126.468 186.784 126.987 186.331C127.182 186.201 127.376 186.007 127.571 185.813C128.415 185.165 129.259 184.452 130.102 183.739C131.011 182.962 131.92 182.12 132.828 181.277C133.283 180.889 133.672 180.5 134.126 180.046C134.386 179.787 134.646 179.593 134.905 179.334C135.619 178.556 136.333 177.714 137.047 176.936C137.891 175.965 138.67 174.993 139.448 174.021C139.903 173.438 140.422 172.855 140.811 172.272C140.941 172.142 141.006 171.948 141.136 171.818C141.915 170.717 142.694 169.55 143.408 168.384C143.732 167.866 144.121 167.348 144.381 166.829C144.511 166.635 144.576 166.44 144.706 166.246C145.16 165.469 145.549 164.691 146.004 163.849C146.263 163.331 146.588 162.877 146.782 162.359C146.977 161.905 147.172 161.452 147.367 160.998C147.821 159.962 148.275 158.925 148.665 157.888C148.859 157.37 149.119 156.916 149.314 156.398C149.508 155.75 149.703 155.102 149.963 154.454C150.157 153.806 150.352 153.223 150.547 152.575C150.547 152.446 150.612 152.316 150.677 152.187H182.998C174.366 197.28 134.711 231.36 87.0068 231.36C45.2741 231.36 9.64231 205.25 -4.37675 168.514C-8.07622 158.795 -17.0328 152.187 -27.4173 152.187H-28.0664C-37.023 152.187 -43.5782 160.739 -41.1768 169.356C-25.6 225.464 25.933 266.605 87.0717 266.605C162.943 266.605 224.082 203.241 220.058 126.595L219.669 126.336Z" fill="#E3F2FF"/>
</svg>
