<svg width="294" height="238" viewBox="0 0 294 238" fill="none" xmlns="http://www.w3.org/2000/svg">
<g opacity="0.35">
<g opacity="0.4">
<rect x="59.7773" y="237.431" width="56.9143" height="63.0942" transform="rotate(-134.094 59.7773 237.431)" fill="#85B1F3"/>
<path d="M20.1729 196.555L21.4144 178.125L66.7286 134.222L65.487 152.652L20.1729 196.555Z" fill="#3E82E7"/>
<path d="M105.091 193.528L65.4877 152.653L66.7293 134.222L106.332 175.098L105.091 193.528Z" fill="#B7D4FF"/>
</g>
<g opacity="0.4">
<rect x="64.8242" y="122.527" width="39.7228" height="44.0359" transform="rotate(-134.094 64.8242 122.527)" fill="#85B1F3"/>
<path d="M37.1836 93.9978L38.0501 81.1346L69.6767 50.4927L68.8102 63.3559L37.1836 93.9978Z" fill="#3E82E7"/>
<path d="M96.4512 91.8853L68.8106 63.3564L69.6771 50.4932L97.3177 79.0221L96.4512 91.8853Z" fill="#B7D4FF"/>
</g>
<g opacity="0.4">
<rect x="255.269" y="221.56" width="39.7228" height="44.0359" transform="rotate(-134.094 255.269 221.56)" fill="#85B1F3"/>
<path d="M227.628 193.032L228.494 180.168L260.121 149.527L259.255 162.39L227.628 193.032Z" fill="#3E82E7"/>
<path d="M286.896 190.919L259.255 162.39L260.121 149.527L287.762 178.056L286.896 190.919Z" fill="#B7D4FF"/>
</g>
<g opacity="0.4">
<rect x="125.171" y="135.498" width="25.6744" height="28.4622" transform="rotate(-134.094 125.171 135.498)" fill="#85B1F3"/>
<path d="M107.306 117.059L107.866 108.745L128.307 88.9396L127.747 97.2536L107.306 117.059Z" fill="#3E82E7"/>
<path d="M145.611 115.693L127.746 97.2538L128.306 88.9398L146.171 107.379L145.611 115.693Z" fill="#B7D4FF"/>
</g>
<g opacity="0.4">
<rect x="15.5938" y="139.843" width="18.4081" height="20.4069" transform="rotate(-134.094 15.5938 139.843)" fill="#85B1F3"/>
<path d="M2.78516 126.623L3.18671 120.662L17.8429 106.462L17.4414 112.423L2.78516 126.623Z" fill="#3E82E7"/>
<path d="M30.25 125.644L17.441 112.423L17.8425 106.462L30.6516 119.683L30.25 125.644Z" fill="#B7D4FF"/>
</g>
<g opacity="0.4">
<rect x="103.329" y="33.3815" width="18.4081" height="20.4069" transform="rotate(-134.094 103.329 33.3815)" fill="#85B1F3"/>
<path d="M90.5205 20.161L90.9221 14.2L105.578 0.000133095L105.177 5.96113L90.5205 20.161Z" fill="#3E82E7"/>
<path d="M117.985 19.1823L105.176 5.96157L105.578 0.000573012L118.387 13.2213L117.985 19.1823Z" fill="#B7D4FF"/>
</g>
</g>
</svg>
