<svg width="159" height="58" viewBox="0 0 159 58" fill="none" xmlns="http://www.w3.org/2000/svg">
<g clip-path="url(#clip0_356_441)">
<path d="M53.7142 47.4447C52.7149 46.1357 51.1159 45.028 49.8667 44.1721C47.1684 42.3596 44.67 41.0506 41.9717 40.0437L29.1798 4.54871C29.1299 4.29698 28.8301 3.44107 28.1805 2.53481C27.1312 1.12508 25.7321 0.369873 24.1831 0.369873C22.5841 0.369873 21.185 1.12508 20.1856 2.53481C19.536 3.44107 19.2362 4.29698 19.1862 4.54871L0.897878 54.9969C0.648038 55.7017 0.997815 56.5072 1.69737 56.759C1.84727 56.8094 1.99718 56.8597 2.14708 56.8597C2.59679 56.8597 2.99654 56.6583 3.24638 56.3058C3.29635 56.2555 3.34632 56.2052 3.34632 56.1549C6.0446 51.5229 9.9421 47.6461 14.5392 44.9273C19.2862 42.1582 24.7327 40.6478 30.2792 40.6478C32.7775 40.6478 35.276 40.9499 37.6744 41.5541C38.424 41.7555 39.1235 41.9569 39.8231 42.2085L42.1716 48.7034C42.1716 48.7537 43.121 51.2208 43.7705 52.9326C44.5701 54.9465 46.0191 56.2555 47.868 56.7086C48.2677 56.8094 48.6674 56.8597 49.0172 56.8597C50.5163 56.8597 52.0154 56.2555 53.1146 55.1983C54.2639 54.0906 54.9134 52.7312 54.9134 51.1704C54.9635 49.811 54.5137 48.4517 53.7142 47.4447ZM13.24 42.561C10.7416 44.0211 8.44307 45.8336 6.39438 47.8475L21.6846 5.35427C21.6846 5.35427 21.9345 4.69975 22.3342 4.09558C22.7839 3.44107 23.3336 3.08863 24.1331 3.08863C24.9326 3.08863 25.4822 3.44107 25.9319 4.09558C26.3817 4.69975 26.5815 5.30392 26.5815 5.35427L38.6738 38.936C35.9755 38.2312 33.1773 37.8787 30.3292 37.8787C24.283 37.9291 18.3867 39.5402 13.24 42.561ZM51.3157 53.1844C50.5163 53.9395 49.417 54.292 48.4676 54.0402C47.5182 53.8388 46.7686 53.0836 46.3189 51.9256C45.6694 50.2642 44.7699 47.8978 44.7199 47.7468L43.2209 43.5176C44.9199 44.3232 46.6188 45.2798 48.3676 46.4378C49.467 47.193 50.8161 48.1496 51.5656 49.1062C52.2651 50.0124 52.7648 51.7746 51.3157 53.1844Z" fill="url(#paint0_linear_356_441)"/>
<path d="M30.3284 37.9295C24.3322 37.9295 18.386 39.5406 13.2392 42.5614C10.7408 44.0216 8.44229 45.8341 6.3936 47.848L5.99385 48.9556L3.39551 56.1049C6.09379 51.473 9.9913 47.5962 14.5884 44.9278C19.3354 42.1587 24.7819 40.6482 30.3284 40.6482C32.8267 40.6482 35.3252 40.9503 37.7236 41.5545C38.4732 41.7559 39.1727 41.9573 39.8723 42.2091L38.723 38.9868C35.9747 38.2819 33.1765 37.9295 30.3284 37.9295Z" fill="url(#paint1_linear_356_441)"/>
<path d="M53.7142 47.445C52.7149 46.1359 51.1159 45.0283 49.8667 44.1724C47.1684 42.3599 44.67 41.0508 41.9717 40.0439L43.2209 43.5179C44.9198 44.3234 46.6187 45.28 48.3676 46.438C49.4669 47.1932 50.8161 48.1498 51.5655 49.1064C51.9153 49.5595 52.2151 50.3148 52.2151 51.07H54.9135C54.9634 49.8113 54.5137 48.452 53.7142 47.445Z" fill="url(#paint2_linear_356_441)"/>
<path d="M55.4635 21.9186H54.0145L52.6154 18.7467H46.1195L44.7204 21.9186H43.3213L48.7179 9.83514H49.967L55.4635 21.9186ZM49.4174 11.4463L46.7191 17.5383H52.1157L49.4174 11.4463Z" fill="#333333"/>
<path d="M65.956 16.8336C65.956 17.6895 65.8561 18.495 65.6063 19.1496C65.3564 19.8041 65.0066 20.3579 64.6069 20.811C64.1572 21.2641 63.6575 21.5662 63.0579 21.818C62.4583 22.0194 61.7587 22.1704 61.0092 22.1704C60.2597 22.1704 59.6101 22.0697 59.0105 21.818C58.4109 21.6166 57.8612 21.2641 57.4615 20.811C57.0118 20.3579 56.712 19.8041 56.4621 19.1999C56.2122 18.5957 56.1123 17.7902 56.1123 16.9343V9.93594H57.4615V16.8336C57.4615 18.1426 57.7613 19.1496 58.4109 19.8041C59.0604 20.5089 59.9599 20.8614 61.1091 20.8614C62.2085 20.8614 63.0579 20.5089 63.7075 19.8544C64.357 19.1999 64.6569 18.193 64.6569 16.8839V9.93594H66.006V16.8336H65.956Z" fill="#333333"/>
<path d="M72.6015 21.9187H71.2523V11.1947H67.2549V9.93595H76.599V11.1947H72.6015V21.9187Z" fill="#333333"/>
<path d="M88.4929 18.2933C88.1935 19.0485 87.7938 19.7031 87.2441 20.2569C86.6945 20.8106 86.0948 21.2638 85.3453 21.6163C84.5958 21.9686 83.7463 22.1197 82.8469 22.1197C81.9475 22.1197 81.0981 21.9686 80.3985 21.6163C79.699 21.2638 78.9994 20.861 78.4997 20.2569C78 19.6527 77.5503 19.0485 77.2505 18.2933C76.9507 17.5381 76.8008 16.7326 76.8008 15.927C76.8008 15.071 76.9507 14.3158 77.2505 13.5606C77.5503 12.8054 77.95 12.151 78.4997 11.5971C79.0494 11.0433 79.649 10.5901 80.3985 10.2378C81.148 9.88529 81.9975 9.73421 82.8969 9.73421C83.7963 9.73421 84.6458 9.88529 85.3453 10.2378C86.0948 10.5901 86.7444 10.9929 87.2441 11.5971C87.7938 12.151 88.1935 12.8054 88.4929 13.5606C88.7928 14.3158 88.9432 15.1214 88.9432 15.927C88.9432 16.7829 88.7928 17.5381 88.4929 18.2933ZM87.1942 14.0138C86.9443 13.4096 86.6445 12.9061 86.1948 12.453C85.7951 11.9999 85.2954 11.6474 84.6958 11.3957C84.0961 11.144 83.4965 10.9929 82.7969 10.9929C82.0974 10.9929 81.4978 11.144 80.8981 11.3957C80.3486 11.6474 79.8488 11.9999 79.4491 12.453C79.0494 12.9061 78.6996 13.4096 78.4997 14.0138C78.2498 14.6179 78.1499 15.2724 78.1499 15.927C78.1499 16.5815 78.2498 17.236 78.4997 17.8402C78.7496 18.4444 79.0494 18.9478 79.4991 19.401C79.8988 19.854 80.3985 20.2065 80.9981 20.4583C81.5477 20.71 82.1973 20.861 82.8969 20.861C83.5965 20.861 84.1961 20.71 84.7957 20.4583C85.3453 20.2065 85.8451 19.854 86.2448 19.401C86.6445 18.9478 86.9943 18.4444 87.1942 17.8402C87.394 17.236 87.544 16.5815 87.544 15.927C87.544 15.2724 87.4441 14.6179 87.1942 14.0138Z" fill="#333333"/>
<path d="M96.5857 18.6461H96.5358L92.1888 12.252V21.9187H90.8896V9.93594H92.2387L96.5857 16.4811L100.934 9.93594H102.283V21.9187H100.883V12.252L96.5857 18.6461Z" fill="#333333"/>
<path d="M115.674 21.9185H114.225L112.826 18.7466H106.33L104.931 21.9185H103.532L108.928 9.83508H110.178L115.674 21.9185ZM109.628 11.4462L106.88 17.5887H112.276L109.628 11.4462Z" fill="#333333"/>
<path d="M119.872 21.9187H118.523V11.1947H114.524V9.93594H123.869V11.1947H119.872V21.9187Z" fill="#333333"/>
<path d="M126.667 9.93595V21.9187H125.318V9.93595H126.667Z" fill="#333333"/>
<path d="M140.359 18.2933C140.059 19.0485 139.659 19.7031 139.11 20.2569C138.56 20.8106 137.961 21.2638 137.211 21.6163C136.461 21.9686 135.612 22.1197 134.713 22.1197C133.813 22.1197 132.964 21.9686 132.265 21.6163C131.564 21.2638 130.865 20.861 130.366 20.2569C129.866 19.6527 129.416 19.0485 129.116 18.2933C128.817 17.5381 128.667 16.7326 128.667 15.927C128.667 15.0711 128.817 14.3158 129.116 13.5606C129.416 12.8054 129.816 12.151 130.366 11.5971C130.915 11.0433 131.515 10.5901 132.265 10.2378C133.014 9.8853 133.863 9.73422 134.763 9.73422C135.662 9.73422 136.512 9.8853 137.211 10.2378C137.961 10.5901 138.61 10.9929 139.11 11.5971C139.659 12.151 140.059 12.8054 140.359 13.5606C140.659 14.3158 140.809 15.1214 140.809 15.927C140.809 16.7829 140.659 17.5381 140.359 18.2933ZM139.06 14.0138C138.811 13.4096 138.511 12.9061 138.06 12.453C137.661 11.9999 137.162 11.6474 136.562 11.3957C135.962 11.144 135.362 10.9929 134.663 10.9929C133.963 10.9929 133.364 11.144 132.764 11.3957C132.214 11.6474 131.715 11.9999 131.315 12.453C130.915 12.9061 130.565 13.4096 130.366 14.0138C130.116 14.6179 130.016 15.2724 130.016 15.927C130.016 16.5815 130.116 17.236 130.366 17.8402C130.616 18.4444 130.915 18.9478 131.365 19.401C131.765 19.854 132.265 20.2065 132.864 20.4583C133.414 20.71 134.063 20.861 134.763 20.861C135.462 20.861 136.062 20.71 136.662 20.4583C137.211 20.2065 137.711 19.854 138.11 19.401C138.511 18.9478 138.86 18.4444 139.06 17.8402C139.26 17.236 139.409 16.5815 139.409 15.927C139.409 15.2724 139.31 14.6179 139.06 14.0138Z" fill="#333333"/>
<path d="M151.452 9.93595H152.751V21.9187H151.702L144.006 12.1009V21.9187H142.707V9.93595H143.956L151.452 19.5523V9.93595Z" fill="#333333"/>
<path d="M59.2608 28.011H61.6593L66.756 40.0944H64.0078L62.9085 37.426H57.9116L56.8124 40.0944H54.1641L59.2608 28.011ZM62.0091 35.0596L60.4101 31.1829L58.8111 35.0596H62.0091Z" fill="#333333"/>
<path d="M67.6055 28.0608H70.004L75.6004 35.4619V28.0608H78.1987V40.0435H75.9501L70.2039 32.441V40.0435H67.6055V28.0608Z" fill="#333333"/>
<path d="M83.4955 35.3612L78.8984 28.0608H81.9465L84.7947 32.8942L87.6928 28.0608H90.641L86.0939 35.3108V40.0938H83.4955V35.3612Z" fill="#333333"/>
<path d="M90.9414 28.0614H93.7391L96.188 36.1673L98.8363 28.011H101.085L103.733 36.1673L106.181 28.0614H108.93L104.883 40.1447H102.583L99.9859 32.2905L97.287 40.1447H94.9885L90.9414 28.0614Z" fill="#333333"/>
<path d="M109.878 28.0607H112.476V32.7934H117.323V28.0607H119.922V40.0434H117.323V35.21H112.476V40.0434H109.878V28.0607Z" fill="#333333"/>
<path d="M122.021 28.0608H130.965V30.4271H124.569V32.8439H130.165V35.2101H124.569V37.7275H131.014V40.0938H121.971V28.0608H122.021Z" fill="#333333"/>
<path d="M132.664 28.0607H138.111C139.61 28.0607 140.759 28.4635 141.559 29.2691C142.259 29.9739 142.558 30.8802 142.558 31.9879V32.0382C142.558 32.9948 142.308 33.8004 141.859 34.4045C141.409 35.0086 140.759 35.4618 140.01 35.7639L142.908 40.0434H139.859L137.312 36.217H137.261H135.262V40.0434H132.664V28.0607ZM137.911 33.9011C138.56 33.9011 139.06 33.75 139.41 33.4479C139.76 33.1458 139.91 32.743 139.91 32.2395V32.1892C139.91 31.6354 139.71 31.1822 139.36 30.8802C139.011 30.5781 138.51 30.427 137.861 30.427H135.262V33.8507H137.911V33.9011Z" fill="#333333"/>
<path d="M144.106 28.0608H153.05V30.4271H146.655V32.8439H152.251V35.2101H146.655V37.7275H153.101V40.0938H144.057V28.0608H144.106Z" fill="#333333"/>
</g>
<defs>
<linearGradient id="paint0_linear_356_441" x1="0.814731" y1="28.6025" x2="54.9482" y2="28.6025" gradientUnits="userSpaceOnUse">
<stop stop-color="#FCDA00"/>
<stop offset="0.0412963" stop-color="#FACE0C"/>
<stop offset="0.1529" stop-color="#F6AF1C"/>
<stop offset="0.27" stop-color="#F39521"/>
<stop offset="0.3913" stop-color="#F08023"/>
<stop offset="0.5183" stop-color="#EF6F24"/>
<stop offset="0.6533" stop-color="#EE6225"/>
<stop offset="0.8021" stop-color="#ED5925"/>
<stop offset="0.991" stop-color="#ED5625"/>
<stop offset="1" stop-color="#ED5625"/>
</linearGradient>
<linearGradient id="paint1_linear_356_441" x1="3.39106" y1="47.0128" x2="39.8309" y2="47.0128" gradientUnits="userSpaceOnUse">
<stop offset="0.2768" stop-color="white" stop-opacity="0"/>
<stop offset="0.3255" stop-color="#ECEBEB" stop-opacity="0.0113339"/>
<stop offset="0.4001" stop-color="#CCC9C9" stop-opacity="0.0287315"/>
<stop offset="0.4915" stop-color="#9F9B9B" stop-opacity="0.0500372"/>
<stop offset="0.5961" stop-color="#696565" stop-opacity="0.0744124"/>
<stop offset="0.7103" stop-color="#353232" stop-opacity="0.101"/>
<stop offset="0.7917" stop-color="#0A0608" stop-opacity="0.12"/>
<stop offset="0.905" stop-color="#0A0608" stop-opacity="0.23"/>
</linearGradient>
<linearGradient id="paint2_linear_356_441" x1="41.9427" y1="45.5644" x2="54.9476" y2="45.5644" gradientUnits="userSpaceOnUse">
<stop offset="0.1078" stop-color="#0A0608" stop-opacity="0.23"/>
<stop offset="0.2389" stop-color="#0A0608" stop-opacity="0.2"/>
<stop offset="0.307" stop-color="#1A1718" stop-opacity="0.1787"/>
<stop offset="0.439" stop-color="#3B3737" stop-opacity="0.1373"/>
<stop offset="0.6216" stop-color="#757070" stop-opacity="0.0800656"/>
<stop offset="0.8459" stop-color="#E4E2E2" stop-opacity="0.01"/>
<stop offset="0.8771" stop-color="white" stop-opacity="0"/>
</linearGradient>
<clipPath id="clip0_356_441">
<rect width="157.372" height="57.2603" fill="white" transform="translate(0.817383 0.369873)"/>
</clipPath>
</defs>
</svg>
