<svg width="296" height="216" viewBox="0 0 296 216" fill="none" xmlns="http://www.w3.org/2000/svg">
<path d="M0.0572253 119.064C0.880025 87.5922 22.9647 27.2286 75.0255 24.5545C127.086 21.8804 107.769 44.2643 143.991 41.5902C180.213 38.9161 198.801 0.824229 241.175 4.00323C301.445 8.50993 313.974 106.61 267.86 157.399C221.746 208.207 128.04 216.061 92.4726 214.042C56.8678 212.059 -2.09327 200.596 0.0572253 119.064Z" fill="#F0F7FF"/>
<path d="M265.805 47.1816H38.4318C34.1148 47.1816 30.6152 50.6813 30.6152 54.9982V190.667C30.6152 194.984 34.1148 198.483 38.4318 198.483H265.805C270.122 198.483 273.622 194.984 273.622 190.667V54.9982C273.622 50.6813 270.122 47.1816 265.805 47.1816Z" fill="#7DB1FF"/>
<path d="M264.478 53.6705H39.7605C38.3869 53.6705 37.2734 54.784 37.2734 56.1576V181.466C37.2734 182.84 38.3869 183.953 39.7605 183.953H264.478C265.852 183.953 266.966 182.84 266.966 181.466V56.1576C266.966 54.784 265.852 53.6705 264.478 53.6705Z" fill="#ECF4FF"/>
<path d="M152.106 195.136C154.451 195.136 156.351 193.236 156.351 190.891C156.351 188.547 154.451 186.646 152.106 186.646C149.762 186.646 147.861 188.547 147.861 190.891C147.861 193.236 149.762 195.136 152.106 195.136Z" fill="#C8DEFB"/>
<path d="M152.105 193.883C153.758 193.883 155.097 192.544 155.097 190.891C155.097 189.239 153.758 187.899 152.105 187.899C150.453 187.899 149.113 189.239 149.113 190.891C149.113 192.544 150.453 193.883 152.105 193.883Z" fill="#C8DEFB"/>
<path d="M236.332 72.2396V162.523C236.332 165.384 234.014 167.722 231.152 167.722H73.0814C70.2203 167.722 67.8828 165.384 67.8828 162.523V72.2396C67.8828 69.3785 70.2203 67.041 73.0814 67.041H231.152C234.014 67.041 236.332 69.3785 236.332 72.2396Z" fill="white"/>
<path d="M236.332 72.2396V77.3447H67.8828V72.2396C67.8828 69.3785 70.2203 67.041 73.0814 67.041H231.152C234.014 67.041 236.332 69.3785 236.332 72.2396Z" fill="#7DB1FF"/>
<path d="M100.757 77.3447V167.722H73.0814C70.2203 167.722 67.8828 165.384 67.8828 162.523V77.3447H100.757Z" fill="#C8DEFB"/>
<path d="M76.1681 89.5558C77.4281 89.5558 78.4495 88.5344 78.4495 87.2744C78.4495 86.0145 77.4281 84.993 76.1681 84.993C74.9081 84.993 73.8867 86.0145 73.8867 87.2744C73.8867 88.5344 74.9081 89.5558 76.1681 89.5558Z" fill="#7DB1FF"/>
<path d="M94.1963 86.3207H80.8071C80.4973 86.3207 80.2461 86.5718 80.2461 86.8817V87.6671C80.2461 87.9769 80.4973 88.2281 80.8071 88.2281H94.1963C94.5061 88.2281 94.7573 87.9769 94.7573 87.6671V86.8817C94.7573 86.5718 94.5061 86.3207 94.1963 86.3207Z" fill="#9CC4FF"/>
<path d="M76.1681 98.1764C77.4281 98.1764 78.4495 97.155 78.4495 95.895C78.4495 94.6351 77.4281 93.6136 76.1681 93.6136C74.9081 93.6136 73.8867 94.6351 73.8867 95.895C73.8867 97.155 74.9081 98.1764 76.1681 98.1764Z" fill="#7DB1FF"/>
<path d="M94.1963 94.9413H80.8071C80.4973 94.9413 80.2461 95.1925 80.2461 95.5023V96.2877C80.2461 96.5975 80.4973 96.8487 80.8071 96.8487H94.1963C94.5061 96.8487 94.7573 96.5975 94.7573 96.2877V95.5023C94.7573 95.1925 94.5061 94.9413 94.1963 94.9413Z" fill="#9CC4FF"/>
<path d="M226.812 74.5397C227.886 74.5397 228.757 73.669 228.757 72.5949C228.757 71.5209 227.886 70.6501 226.812 70.6501C225.738 70.6501 224.867 71.5209 224.867 72.5949C224.867 73.669 225.738 74.5397 226.812 74.5397Z" fill="#B0D4FF"/>
<path d="M219.691 74.5397C220.765 74.5397 221.636 73.669 221.636 72.5949C221.636 71.5209 220.765 70.6501 219.691 70.6501C218.617 70.6501 217.746 71.5209 217.746 72.5949C217.746 73.669 218.617 74.5397 219.691 74.5397Z" fill="#B0D4FF"/>
<path d="M212.546 74.5397C213.62 74.5397 214.491 73.669 214.491 72.5949C214.491 71.5209 213.62 70.6501 212.546 70.6501C211.472 70.6501 210.602 71.5209 210.602 72.5949C210.602 73.669 211.472 74.5397 212.546 74.5397Z" fill="#B0D4FF"/>
<path d="M130.376 211.929C127.608 211.929 125.121 210.489 123.737 208.095C122.353 205.702 122.353 202.84 123.737 200.447L176.434 109.172C177.817 106.779 180.305 105.339 183.072 105.339C185.84 105.339 188.308 106.76 189.692 109.172L242.389 200.447C243.772 202.84 243.772 205.702 242.389 208.095C241.005 210.489 238.518 211.929 235.75 211.929H130.357H130.376Z" fill="#ECF4FF"/>
<path d="M183.091 109.079C184.419 109.079 185.728 109.733 186.476 111.042L239.172 202.317C240.687 204.935 238.798 208.189 235.788 208.189H130.395C127.384 208.189 125.495 204.916 127.01 202.317L179.706 111.042C180.454 109.733 181.782 109.079 183.091 109.079ZM183.091 101.599C179.033 101.599 175.256 103.787 173.218 107.302L120.521 198.577C118.483 202.092 118.483 206.45 120.521 209.965C122.541 213.481 126.337 215.669 130.395 215.669H235.788C239.846 215.669 243.623 213.481 245.661 209.965C247.7 206.45 247.7 202.092 245.661 198.577L192.965 107.302C190.926 103.787 187.149 101.599 183.091 101.599Z" fill="#5696F4"/>
<path d="M185.654 177.969H180.511C179.632 177.969 178.903 177.259 178.884 176.38L177.856 136.399C177.837 135.483 178.566 134.735 179.483 134.735H186.682C187.599 134.735 188.328 135.483 188.309 136.399L187.281 176.38C187.262 177.259 186.533 177.969 185.654 177.969Z" fill="#5696F4"/>
<path d="M183.092 196.707C186.613 196.707 189.468 193.852 189.468 190.33C189.468 186.808 186.613 183.953 183.092 183.953C179.57 183.953 176.715 186.808 176.715 190.33C176.715 193.852 179.57 196.707 183.092 196.707Z" fill="#5696F4"/>
<path d="M161.446 31.6454C169.898 26.7655 173.845 17.7777 170.261 11.5705C166.677 5.36335 156.92 4.28733 148.468 9.16718C140.016 14.047 136.069 23.0348 139.653 29.242C143.237 35.4492 152.994 36.5252 161.446 31.6454Z" fill="#F0F7FF"/>
</svg>
