<svg width="49" height="48" viewBox="0 0 49 48" fill="none" xmlns="http://www.w3.org/2000/svg">
<path d="M44.0962 16.584C44.9242 18.84 45.3682 21.276 45.3682 23.82C45.3682 35.46 35.9242 44.904 24.2842 44.904C12.6442 44.904 3.2002 35.472 3.2002 23.82C3.2002 12.168 12.6442 2.73602 24.2842 2.73602C24.9322 2.73602 25.5682 2.76002 26.2042 2.82002" stroke="black" stroke-width="2.5" stroke-linecap="round" stroke-linejoin="round"/>
<path d="M12.1885 6.98401C12.1885 6.98401 12.9205 13.476 17.0125 15.36C21.1045 17.244 23.6005 17.256 24.7405 22.14C25.6525 26.088 26.3005 30.264 31.3645 30.072C35.6125 29.904 36.1405 26.232 37.7005 24.264C40.3405 20.928 45.2725 21.66 45.2725 21.66" stroke="black" stroke-width="2.5" stroke-linecap="round" stroke-linejoin="round"/>
<path d="M3.38086 21.096C3.38086 21.096 5.69686 27.18 10.7609 28.32C15.8249 29.46 15.7049 28.152 19.3409 30.084C21.9329 31.464 26.6729 36.84 21.6209 44.748" stroke="black" stroke-width="2.5" stroke-linecap="round" stroke-linejoin="round"/>
<path d="M41.6121 8.84402C41.6121 9.10802 41.6001 9.36002 41.5641 9.62402C41.2641 12.192 37.3521 16.152 36.2001 17.112C36.0201 17.268 35.7561 17.268 35.5761 17.112C34.4361 16.152 30.5121 12.192 30.2121 9.62402C30.1761 9.37202 30.1641 9.10802 30.1641 8.84402C30.1641 5.47202 32.7201 2.73602 35.8881 2.73602C39.0561 2.73602 41.6121 5.47202 41.6121 8.84402Z" stroke="black" stroke-width="2.5" stroke-linecap="round" stroke-linejoin="round"/>
</svg>
