<svg width="48" height="48" viewBox="0 0 48 48" fill="none" xmlns="http://www.w3.org/2000/svg">
<path d="M21.5882 6.06915C21.7999 5.97695 22.049 5.97695 22.2732 6.06915L42.5753 14.5777C43.2105 14.8411 43.2105 15.6709 42.5753 15.9343L22.2732 24.4429C22.0614 24.5351 21.8124 24.5351 21.5882 24.4429L2.25754 15.9343C1.64723 15.6709 1.64723 14.8543 2.25754 14.5909L21.5882 6.08232V6.06915Z" stroke="black" stroke-width="2.5" stroke-linecap="round" stroke-linejoin="round"/>
<path d="M43.0488 15.2625V35.3352" stroke="black" stroke-width="2.5" stroke-linecap="round" stroke-linejoin="round"/>
<path d="M43.0486 42C44.789 42 46.1998 40.5081 46.1998 38.6677C46.1998 36.8273 44.789 35.3354 43.0486 35.3354C41.3083 35.3354 39.8975 36.8273 39.8975 38.6677C39.8975 40.5081 41.3083 42 43.0486 42Z" stroke="black" stroke-width="2.5" stroke-linecap="round" stroke-linejoin="round"/>
<path d="M36.0742 18.6607V31.4894C36.0742 31.4894 27.9285 33.1358 21.9375 38.7862" stroke="black" stroke-width="2.5" stroke-linecap="round" stroke-linejoin="round"/>
<path d="M7.7998 18.6607V31.4894C7.7998 31.4894 15.9456 33.1358 21.9366 38.7862" stroke="black" stroke-width="2.5" stroke-linecap="round" stroke-linejoin="round"/>
</svg>
