<svg width="34" height="28" viewBox="0 0 34 28" fill="none" xmlns="http://www.w3.org/2000/svg">
<path d="M28.6673 0.666748H5.33398C4.0079 0.666748 2.73613 1.19353 1.79845 2.13121C0.860769 3.0689 0.333984 4.34067 0.333984 5.66675V22.3334C0.333984 23.6595 0.860769 24.9313 1.79845 25.8689C2.73613 26.8066 4.0079 27.3334 5.33398 27.3334H28.6673C29.9934 27.3334 31.2652 26.8066 32.2029 25.8689C33.1405 24.9313 33.6673 23.6595 33.6673 22.3334V5.66675C33.6673 4.34067 33.1405 3.0689 32.2029 2.13121C31.2652 1.19353 29.9934 0.666748 28.6673 0.666748ZM28.6673 4.00008L17.834 11.4501C17.5806 11.5964 17.2932 11.6734 17.0007 11.6734C16.7081 11.6734 16.4207 11.5964 16.1673 11.4501L5.33398 4.00008H28.6673Z" fill="#1D9BF0"/>
</svg>
