<svg width="39" height="39" viewBox="0 0 39 39" fill="none" xmlns="http://www.w3.org/2000/svg">
<path d="M5.33002 29.1495C2.80002 29.1495 0.75 31.1996 0.75 33.7296C0.75 36.2596 2.80002 38.3095 5.33002 38.3095C7.86002 38.3095 9.90997 36.2596 9.90997 33.7296C9.90997 31.1996 7.86002 29.1495 5.33002 29.1495ZM5.33002 35.8095C4.18002 35.8095 3.25 34.8796 3.25 33.7296C3.25 32.5796 4.18002 31.6495 5.33002 31.6495C6.48002 31.6495 7.40997 32.5796 7.40997 33.7296C7.40997 34.8796 6.48002 35.8095 5.33002 35.8095ZM19.59 29.1495C17.06 29.1495 15.01 31.1996 15.01 33.7296C15.01 36.2596 17.06 38.3095 19.59 38.3095C22.12 38.3095 24.17 36.2596 24.17 33.7296C24.17 31.1996 22.12 29.1495 19.59 29.1495ZM19.59 35.8095C18.44 35.8095 17.51 34.8796 17.51 33.7296C17.51 32.5796 18.44 31.6495 19.59 31.6495C20.74 31.6495 21.67 32.5796 21.67 33.7296C21.67 34.8796 20.74 35.8095 19.59 35.8095ZM33.85 29.1495C31.32 29.1495 29.27 31.1996 29.27 33.7296C29.27 36.2596 31.32 38.3095 33.85 38.3095C36.38 38.3095 38.43 36.2596 38.43 33.7296C38.43 31.1996 36.38 29.1495 33.85 29.1495ZM33.85 35.8095C32.7 35.8095 31.77 34.8796 31.77 33.7296C31.77 32.5796 32.7 31.6495 33.85 31.6495C35 31.6495 35.93 32.5796 35.93 33.7296C35.93 34.8796 35 35.8095 33.85 35.8095ZM5.15002 27.6795C5.21002 27.6795 5.27002 27.6895 5.33002 27.6895C5.94002 27.6895 6.48001 27.2395 6.57001 26.6195L7.07001 23.1396C7.15001 22.5496 7.67001 22.1095 8.26001 22.1095H18.34V26.0895C18.34 26.7795 18.9 27.3395 19.59 27.3395C20.28 27.3395 20.84 26.7795 20.84 26.0895V22.1095H30.94C31.53 22.1095 32.04 22.5495 32.13 23.1295L32.61 26.2695C32.71 26.9495 33.35 27.4195 34.03 27.3195C34.71 27.2195 35.18 26.5795 35.08 25.8995L34.6 22.7495C34.31 20.9395 32.77 19.6195 30.94 19.6195H20.84V16.5795C24.64 15.9795 27.55 12.6896 27.55 8.72955C27.55 4.33955 23.98 0.769531 19.59 0.769531C15.2 0.769531 11.63 4.33955 11.63 8.72955C11.63 12.6896 14.54 15.9795 18.34 16.5795V19.6195H8.26001C6.42001 19.6195 4.85003 20.9895 4.59003 22.7995L4.09003 26.2795C3.99003 26.9595 4.47002 27.5996 5.15002 27.6996V27.6795ZM14.13 8.70953C14.13 5.69953 16.58 3.24954 19.59 3.24954C22.6 3.24954 25.05 5.69953 25.05 8.70953C25.05 11.7195 22.6 14.1696 19.59 14.1696C16.58 14.1696 14.13 11.7195 14.13 8.70953Z" fill="#000000"/>
</svg>
