<svg width="39" height="39" viewBox="0 0 39 39" fill="none" xmlns="http://www.w3.org/2000/svg">
<path d="M6.38937 19.96C8.91937 19.96 10.9693 17.91 10.9693 15.38C10.9693 12.85 8.91937 10.8 6.38937 10.8C3.85937 10.8 1.80942 12.85 1.80942 15.38C1.80942 17.91 3.85937 19.96 6.38937 19.96ZM6.38937 13.3C7.53937 13.3 8.46933 14.23 8.46933 15.38C8.46933 16.53 7.53937 17.46 6.38937 17.46C5.23937 17.46 4.30942 16.53 4.30942 15.38C4.30942 14.23 5.23937 13.3 6.38937 13.3ZM33.0594 19.96C35.5894 19.96 37.6394 17.91 37.6394 15.38C37.6394 12.85 35.5894 10.8 33.0594 10.8C30.5294 10.8 28.4793 12.85 28.4793 15.38C28.4793 17.91 30.5294 19.96 33.0594 19.96ZM33.0594 13.3C34.2094 13.3 35.1394 14.23 35.1394 15.38C35.1394 16.53 34.2094 17.46 33.0594 17.46C31.9094 17.46 30.9793 16.53 30.9793 15.38C30.9793 14.23 31.9094 13.3 33.0594 13.3ZM38.6194 29.63L38.0693 26.3C37.8893 25.23 37.3394 24.25 36.5194 23.55C35.6894 22.85 34.6394 22.46 33.5594 22.46H33.0494C32.3594 22.46 31.7994 23.02 31.7994 23.71C31.7994 24.4 32.3594 24.96 33.0494 24.96H33.5594C34.0494 24.96 34.5294 25.13 34.8994 25.45C35.2794 25.77 35.5293 26.21 35.6093 26.7L36.1594 30.03C36.2094 30.32 36.1894 30.64 36.1194 30.92C36.0394 31.21 35.8993 31.48 35.6993 31.72C35.5093 31.95 35.2694 32.14 34.9994 32.26C34.7194 32.39 34.4094 32.46 34.1194 32.46H28.7494L27.7694 24.61C27.5794 23.1 26.8493 21.72 25.7093 20.7C24.5793 19.69 23.0993 19.13 21.5693 19.13H17.8994C16.3894 19.13 14.9194 19.68 13.7594 20.7C12.6194 21.72 11.8893 23.1 11.6993 24.61L10.7193 32.46H5.32932C5.03932 32.46 4.72931 32.39 4.44931 32.26C4.18931 32.14 3.93936 31.96 3.74936 31.72C3.54936 31.48 3.40932 31.21 3.32932 30.94C3.24932 30.64 3.22939 30.32 3.27939 30.03L3.83932 26.7C3.91932 26.21 4.16941 25.76 4.54941 25.45C4.92941 25.13 5.39937 24.96 5.88937 24.96H6.39938C7.08938 24.96 7.64938 24.4 7.64938 23.71C7.64938 23.02 7.08938 22.46 6.39938 22.46H5.88937C4.80937 22.46 3.75941 22.85 2.92941 23.55C2.10941 24.25 1.55936 25.23 1.37936 26.3L0.819305 29.63C0.709305 30.27 0.749403 30.94 0.919403 31.6C1.0994 32.24 1.40932 32.83 1.83932 33.34C2.26933 33.86 2.8194 34.27 3.4194 34.55C4.0294 34.83 4.68932 34.97 5.33932 34.97H10.7794C10.7794 34.97 10.7894 35.05 10.7994 35.08C10.9994 35.73 11.3294 36.29 11.7494 36.75C12.1794 37.24 12.7194 37.63 13.3094 37.9C13.8994 38.16 14.5493 38.3 15.1893 38.3H24.2994C24.9394 38.3 25.5894 38.16 26.1794 37.9C26.7694 37.64 27.2993 37.25 27.7393 36.75C28.1693 36.26 28.4993 35.68 28.6893 35.07C28.6993 35.03 28.6993 34.99 28.7093 34.96H34.1394C34.7894 34.96 35.4494 34.81 36.0594 34.54C36.6594 34.27 37.2094 33.85 37.6394 33.33C38.0694 32.82 38.3794 32.23 38.5594 31.57C38.7294 30.93 38.7594 30.25 38.6494 29.62L38.6194 29.63ZM26.2694 34.33C26.1794 34.61 26.0293 34.87 25.8393 35.09C25.6393 35.31 25.3994 35.49 25.1394 35.61C24.8694 35.73 24.5694 35.79 24.2694 35.79H15.1594C14.8694 35.79 14.5694 35.73 14.2994 35.61C14.0394 35.5 13.7893 35.31 13.5893 35.08C13.3993 34.88 13.2594 34.62 13.1694 34.33C13.0794 34.05 13.0593 33.75 13.0993 33.45L14.1694 24.91C14.2794 24.01 14.7194 23.17 15.3994 22.57C16.0994 21.96 16.9794 21.63 17.8894 21.63H21.5594C22.4794 21.63 23.3594 21.96 24.0394 22.56C24.7294 23.17 25.1694 24.01 25.2794 24.91L26.3493 33.45C26.3893 33.75 26.3594 34.05 26.2794 34.32L26.2694 34.33ZM19.7093 16.67C24.0993 16.67 27.6694 13.1 27.6694 8.70999C27.6694 4.31999 24.0993 0.75 19.7093 0.75C15.3193 0.75 11.7494 4.31999 11.7494 8.70999C11.7494 13.1 15.3193 16.67 19.7093 16.67ZM19.7093 3.25C22.7193 3.25 25.1694 5.69999 25.1694 8.70999C25.1694 11.72 22.7193 14.17 19.7093 14.17C16.6993 14.17 14.2494 11.72 14.2494 8.70999C14.2494 5.69999 16.6993 3.25 19.7093 3.25Z" fill="#000000"/>
</svg>
