<svg width="845" height="935" viewBox="0 0 845 935" fill="none" xmlns="http://www.w3.org/2000/svg">
<g opacity="0.16" clip-path="url(#clip0_107_1700)">
<mask id="mask0_107_1700" style="mask-type:alpha" maskUnits="userSpaceOnUse" x="-43" y="67" width="929" height="602">
<rect x="-42.6748" y="67.3212" width="928" height="601" fill="#D9D9D9"/>
</mask>
<g mask="url(#mask0_107_1700)">
<g style="mix-blend-mode:multiply">
<path d="M1035.19 214.047C1032.14 258.123 992.301 289.117 957.194 290.166C922.088 291.202 890.333 271.583 858.163 257.021C825.994 242.459 788.607 233.159 756.264 253.595C714.918 279.721 695.253 345.965 653.2 369.965C620.424 388.676 584.078 375.328 557.475 352.862C542.433 340.163 531.024 321.123 517.011 306.839C453.449 242.072 466.594 133.728 407.787 107.368C344.101 78.8389 301.046 114.041 283.681 140.543C261.434 174.5 218.644 265.1 273.333 342.227C295.55 373.558 317.137 406.605 330.86 445.258C351.412 503.127 337.64 584.01 292.673 621.449C261.85 647.097 220.396 651.409 196.423 686.913C180.318 710.767 176.338 744.34 181.946 772.99C187.555 801.627 201.616 825.898 217.871 846.38" stroke="#1A5DC2" stroke-miterlimit="10"/>
<path d="M1034.03 211.636C1029.45 256.741 989.485 289.667 953.209 291.465C917.797 293.223 885.463 273.611 853.447 258.131C821.803 242.831 785.606 232.223 753.739 250.379C713.019 273.632 692.183 336.152 650.246 359.765C616.855 378.452 580.666 367.858 552.991 347.48C537.092 335.765 524.326 317.495 509.589 302.919C447.084 241.135 458.702 136.115 401.191 110.209C339.328 82.379 296.836 115.394 279.054 141.366C256.517 174.279 215.545 261.616 266.736 337.383C287.844 368.619 308.366 402.052 321.806 440.422C341.706 496.883 328.878 574.974 286.083 612.383C256.47 638.26 216.229 644.074 192.42 679.095C176.096 703.017 171.323 735.971 175.624 764.599C179.924 793.226 192.467 818.737 207.765 840.37" stroke="#1A5DC2" stroke-miterlimit="10"/>
<path d="M1032.86 209.212C1026.78 255.335 986.673 290.192 949.225 292.763C911.777 295.335 880.6 275.655 848.733 259.229C816.865 242.803 782.598 231.273 751.204 247.16C711.122 267.531 689.135 326.448 647.275 349.55C613.306 368.297 577.19 360.404 548.479 342.081C531.699 331.373 517.613 313.838 502.138 298.981C440.783 240.065 450.789 138.499 394.577 113.034C334.527 85.9013 292.616 116.745 274.409 142.174C251.596 174.03 212.408 258.166 260.113 332.509C280.11 363.664 299.558 397.467 312.734 435.569C331.971 490.634 320.083 565.946 279.476 603.289C251.072 629.408 212.046 636.711 188.393 671.233C171.85 695.237 166.28 727.585 169.266 756.175C172.32 785.341 183.279 811.558 197.623 834.329" stroke="#1A5DC2" stroke-miterlimit="10"/>
<path d="M1031.7 206.787C1024.1 253.942 983.875 290.693 945.241 294.062C909.235 297.203 875.726 277.709 844.017 260.339C812.307 242.969 779.6 230.324 748.679 243.943C709.223 261.442 686.081 316.664 644.313 339.336C609.743 358.1 573.69 352.971 543.987 336.685C526.304 326.992 510.93 310.186 494.7 295.032C434.571 238.892 442.879 140.87 387.966 115.845C329.728 89.4106 288.398 118.083 269.767 142.969C246.692 173.798 209.251 254.777 253.501 327.636C272.399 358.751 290.69 392.937 303.662 430.717C322.12 484.457 311.294 556.944 272.858 594.206C245.659 620.58 207.913 629.422 184.362 663.397C167.645 687.515 161.21 719.234 162.916 747.767C164.622 776.3 174.102 804.379 187.479 828.3" stroke="#1A5DC2" stroke-miterlimit="10"/>
<path d="M1030.54 204.377C1021.42 252.562 981.066 291.193 941.256 295.362C904.954 299.161 870.858 279.778 839.302 261.438C807.745 243.097 776.6 229.376 746.145 240.713C707.325 255.341 683.016 306.88 641.353 329.11C606.181 347.891 570.154 345.56 539.488 331.263C520.891 322.597 504.242 306.494 487.263 291.071C428.429 237.613 434.972 143.217 381.355 118.645C324.928 92.9209 284.202 119.412 265.125 143.752C241.791 173.541 206.075 251.439 246.892 322.738C264.691 353.826 281.874 388.338 294.603 425.841C312.363 478.206 302.514 547.945 266.263 585.101C240.256 611.753 203.762 622.051 180.355 655.539C163.437 679.742 156.15 710.885 156.588 739.349C157.025 767.814 164.946 797.192 177.366 822.264" stroke="#1A5DC2" stroke-miterlimit="10"/>
<path d="M1029.38 201.952C1018.74 251.154 978.261 291.68 937.272 296.66C900.676 301.105 865.992 281.847 834.586 262.548C805.042 244.387 773.583 228.358 743.62 237.496C705.413 249.145 679.954 297.081 638.39 318.908C602.609 337.692 566.589 338.208 534.994 325.88C515.457 318.263 497.569 302.844 479.831 287.149C422.358 236.28 427.068 145.615 374.76 121.486C320.146 96.459 280.01 120.781 260.499 144.575C236.914 173.339 202.889 248.229 240.297 317.882C256.992 348.968 273.081 383.795 285.549 421.004C302.623 471.982 293.742 539.025 259.672 576.035C234.863 602.993 199.613 614.733 176.344 647.706C159.219 671.979 151.075 702.571 150.256 730.956C149.394 761.078 155.795 790.045 167.24 816.251" stroke="#1A5DC2" stroke-miterlimit="10"/>
<path d="M1028.21 199.527C1016.06 249.761 975.458 292.14 933.287 297.958C896.399 303.036 861.112 283.926 829.861 263.643C800.835 244.796 770.576 227.394 741.076 234.262C703.508 243.029 676.871 287.279 635.419 308.679C599.039 327.467 563.001 330.865 530.484 320.468C510.005 313.912 490.891 299.153 472.381 283.197C416.313 234.846 419.149 147.971 368.137 124.296C315.346 99.9679 275.811 122.122 255.855 145.37C232.029 173.109 199.64 245.074 233.684 313.008C249.278 344.133 264.27 379.222 276.476 416.151C292.864 465.742 284.955 530.129 253.063 566.953C229.439 594.228 195.438 607.383 172.322 639.871C154.987 664.227 145.963 694.278 143.915 722.549C141.717 753.011 146.626 782.868 157.115 810.225" stroke="#1A5DC2" stroke-miterlimit="10"/>
<path d="M1027.05 197.104C1013.39 248.356 972.649 292.588 929.305 299.245C892.125 304.956 856.241 286.021 825.149 264.729C796.636 245.22 767.584 226.408 738.553 231.033C701.615 236.903 673.813 277.456 632.46 298.453C595.471 317.244 559.405 323.575 525.994 315.06C504.557 309.603 484.237 295.454 464.953 279.251C410.342 233.347 411.25 150.345 361.546 127.112C310.568 103.482 271.642 123.482 251.232 146.169C227.175 172.886 196.37 241.995 227.083 308.125C241.571 339.327 255.473 374.639 267.427 411.29C283.139 459.496 276.195 521.264 246.477 557.863C224.041 585.495 191.285 600.026 168.313 632.026C150.768 656.465 140.845 685.972 137.586 714.144C134.026 744.968 137.467 775.706 147.001 804.202" stroke="#1A5DC2" stroke-miterlimit="10"/>
<path d="M1025.89 194.692C1010.71 246.975 969.847 293.049 925.318 300.556C887.841 306.873 851.355 288.139 820.43 265.852C792.431 245.682 764.583 225.471 736.025 227.829C699.725 230.816 670.738 267.669 629.506 288.253C591.909 307.034 555.81 316.336 521.499 309.677C499.102 305.33 477.59 291.769 457.512 275.314C404.401 231.787 403.337 152.729 354.932 129.937C305.764 107.016 267.459 124.853 246.587 146.976C222.317 172.687 193.017 239.033 220.468 303.265C233.845 334.568 246.671 370.081 258.352 406.45C273.391 453.258 267.424 512.462 239.866 548.794C218.627 576.797 187.106 592.702 164.289 624.204C146.536 648.713 135.69 677.698 131.243 705.75C126.303 736.932 128.297 768.542 136.864 798.187" stroke="#1A5DC2" stroke-miterlimit="10"/>
<path d="M1024.73 192.268C1008.02 245.58 967.042 293.47 921.335 301.842C883.57 308.767 846.472 290.244 815.717 266.937C788.229 246.118 761.588 224.497 733.494 224.585C697.832 224.689 667.662 257.829 626.536 278.025C588.322 296.794 552.182 309.105 517.001 304.254C493.629 301.042 470.951 288.033 450.075 271.353C398.496 230.141 395.44 155.077 348.322 132.736C300.967 110.513 263.291 126.199 241.948 147.746C217.463 172.463 189.606 236.114 213.862 298.354C226.111 329.796 237.869 365.458 249.296 401.561C263.659 446.983 258.685 503.653 233.273 539.676C213.225 568.088 182.937 585.315 160.277 616.318C142.304 640.908 130.535 669.359 124.909 697.305C118.568 728.842 119.143 761.342 126.746 792.123" stroke="#1A5DC2" stroke-miterlimit="10"/>
<path d="M1023.56 189.843C1005.35 244.174 964.237 293.891 917.352 303.141C879.293 310.645 841.585 292.375 811.001 268.047C784.015 246.578 758.588 223.561 730.969 221.368C695.946 218.589 664.594 248.004 623.585 267.812C584.766 286.559 548.579 301.917 512.509 298.858C488.171 296.796 464.323 284.298 442.645 267.418C392.638 228.463 387.539 157.462 341.731 135.551C296.189 114.026 259.149 127.576 237.326 148.544C212.635 172.269 186.144 233.316 207.269 293.484C218.373 325.115 229.09 360.89 240.244 396.712C253.943 440.737 249.974 494.926 226.685 530.598C207.843 559.448 178.775 577.955 156.276 608.487C138.095 633.147 125.363 661.068 118.588 688.913C110.825 720.802 109.994 754.182 116.641 786.113" stroke="#1A5DC2" stroke-miterlimit="10"/>
<path d="M1022.4 187.432C1002.67 242.794 961.432 294.299 913.363 304.452C875.009 312.55 836.683 294.516 806.283 269.157C779.793 247.063 755.598 222.614 728.432 218.149C694.055 212.502 661.515 238.176 620.612 257.596C581.178 276.318 544.95 294.752 508.006 293.46C482.696 292.573 457.696 280.551 435.203 263.481C386.796 226.736 379.625 159.846 335.115 138.376C291.396 117.55 254.981 128.975 232.679 149.351C207.781 172.098 182.57 230.619 200.645 288.61C210.576 320.463 220.291 356.306 231.17 391.859C244.208 434.475 241.264 486.24 220.075 521.516C202.465 550.835 174.588 570.604 152.243 600.65C133.842 625.392 120.149 652.771 112.236 680.504C103.032 712.742 100.813 747.016 106.495 780.084" stroke="#1A5DC2" stroke-miterlimit="10"/>
<path d="M1021.24 185.008C999.987 241.386 958.632 294.695 909.382 305.739C870.737 314.404 831.785 296.659 801.57 270.255C775.567 247.535 752.6 221.665 725.91 214.92C692.169 206.403 658.44 228.337 617.661 247.384C577.612 266.082 541.349 287.618 503.515 288.065C477.242 288.367 451.095 276.782 427.776 259.534C380.987 224.948 371.767 162.095 328.515 141.19C286.645 120.962 250.838 130.366 228.047 150.148C202.96 171.932 178.913 227.999 194.043 283.739C202.763 315.861 211.505 351.725 222.109 387.009C234.495 428.217 232.601 477.601 213.479 512.424C197.107 542.239 170.419 563.23 148.237 592.792C129.619 617.602 114.953 644.438 105.91 672.087C95.254 704.671 91.6587 739.829 96.3838 774.048" stroke="#1A5DC2" stroke-miterlimit="10"/>
<path d="M1020.08 182.584C997.31 239.994 955.824 295.077 905.398 307.038C866.452 316.269 826.883 298.814 796.856 271.353C771.348 248.021 749.602 220.717 723.385 211.704C690.28 200.316 655.364 218.498 614.7 237.171C574.038 255.831 537.743 280.509 499.025 282.657C471.785 284.173 444.51 272.977 420.347 255.588C375.205 223.127 363.869 164.456 321.923 144.006C279.978 123.556 246.702 131.771 223.425 150.947C198.148 171.768 175.161 225.456 187.453 278.857C194.912 311.293 202.74 347.134 213.059 382.147C224.792 421.961 223.985 468.983 206.893 503.333C191.794 533.677 166.256 555.87 144.229 584.947C125.392 609.825 109.737 636.102 99.582 663.669C87.4594 696.571 82.5015 732.654 86.262 768.01" stroke="#1A5DC2" stroke-miterlimit="10"/>
<path d="M1018.91 180.159C994.636 238.587 953.016 295.445 901.413 308.336C862.165 318.133 821.966 300.992 792.141 272.45C767.107 248.503 746.6 219.78 720.851 208.472C688.382 194.214 652.279 208.643 611.739 226.943C570.464 245.567 534.146 273.401 494.524 277.247C466.327 279.979 437.93 269.132 412.898 251.636C369.422 221.238 355.948 166.825 315.301 146.816C277.057 127.983 242.543 133.184 218.771 151.74C193.301 171.623 171.264 222.966 180.831 273.97C186.977 306.736 193.946 342.525 203.988 377.282C215.082 415.677 215.384 460.393 200.286 494.238C186.496 525.143 162.065 548.492 140.209 577.1C121.156 602.033 104.499 627.762 93.2413 655.262C79.6315 688.478 73.3433 725.479 76.1371 761.984" stroke="#1A5DC2" stroke-miterlimit="10"/>
<path d="M1017.75 177.748C991.957 237.207 950.197 295.824 897.428 309.635C857.881 319.985 817.039 303.168 787.424 273.561C762.873 249.012 743.599 218.844 718.325 205.255C686.49 188.14 649.203 198.803 608.777 216.729C566.879 235.314 530.555 266.32 490.031 271.851C460.872 275.825 431.363 265.277 405.467 247.702C363.671 219.343 348.055 169.213 308.707 149.644C272.274 131.522 238.422 134.617 214.146 152.551C188.492 171.499 167.274 220.539 174.236 269.113C178.978 302.247 185.186 337.961 194.933 372.445C205.386 409.435 206.847 451.854 193.695 485.173C181.263 516.659 157.889 541.143 136.207 569.268C116.927 594.269 99.2821 619.425 86.9087 646.869C71.806 680.372 64.1831 718.317 66.0202 755.973" stroke="#1A5DC2" stroke-miterlimit="10"/>
<path d="M1016.59 175.324C989.27 235.813 947.382 296.179 893.434 310.933C853.59 321.823 812.103 305.344 782.7 274.657C758.609 249.517 740.589 217.907 715.782 202.023C684.571 182.049 646.111 188.935 605.806 206.514C563.287 225.047 526.951 259.264 485.519 266.452C455.417 271.685 424.805 261.371 398.017 243.764C357.92 217.395 340.133 171.596 302.083 152.468C267.461 135.055 234.267 136.072 209.491 153.357C183.661 171.384 163.139 218.128 167.603 264.238C170.855 297.764 176.401 333.367 185.851 367.592C195.674 403.164 198.343 443.307 187.076 476.09C176.052 508.166 153.687 533.777 132.166 561.431C112.668 586.5 94.0177 611.068 80.549 638.459C63.9533 672.25 54.9937 711.151 55.8662 749.943" stroke="#1A5DC2" stroke-miterlimit="10"/>
<path d="M1015.42 172.899C986.595 234.407 944.569 296.52 889.451 312.218C849.308 323.661 807.164 307.532 777.985 275.755C754.365 250.025 737.559 217.018 713.258 198.793C682.639 176.033 643.039 179.069 602.846 196.287C559.706 214.768 523.38 252.187 481.029 261.044C449.982 267.534 418.275 257.417 390.59 239.804C352.197 215.399 332.197 174.055 295.483 155.269C262.646 138.654 230.136 137.503 204.859 154.141C179.583 170.779 158.904 215.687 161.002 259.353C162.632 293.263 167.649 328.751 176.791 362.728C185.984 396.884 189.901 434.757 180.479 466.997C170.923 499.674 149.506 526.401 128.157 553.585C108.433 578.708 88.7768 602.688 74.2184 630.053C56.114 664.103 45.8356 703.976 45.7514 743.919" stroke="#1A5DC2" stroke-miterlimit="10"/>
<path d="M1014.26 170.488C983.918 233.027 941.748 296.86 885.466 313.53C845.015 325.512 802.212 309.744 773.269 276.866C750.098 250.555 734.549 216.081 710.724 195.575C680.741 169.945 639.946 169.214 599.885 186.074C556.127 204.49 519.814 245.15 476.53 255.634C444.54 263.382 411.767 253.401 383.152 235.855C346.472 213.364 324.288 176.426 288.882 158.083C257.858 142.166 226.01 138.975 200.228 154.938C174.042 171.148 154.544 213.199 154.403 254.47C154.289 288.743 158.9 324.137 167.742 357.866C176.584 391.596 181.536 426.181 173.894 457.907C165.878 491.183 145.328 519.012 124.149 545.74C104.189 570.915 83.5396 594.295 67.8917 621.636C48.2807 655.931 36.6892 696.803 35.6404 737.883" stroke="#1A5DC2" stroke-miterlimit="10"/>
<path d="M1013.1 168.064C981.233 231.619 938.937 297.189 881.481 314.829C840.726 327.337 797.259 311.955 768.553 277.976C745.839 251.087 731.548 215.145 708.196 192.371C678.839 163.869 636.846 159.265 596.921 175.872C552.521 194.116 516.245 238.126 472.035 250.251C439.117 259.286 405.274 249.348 375.709 231.932C340.743 211.341 316.373 178.823 282.266 160.92C253.055 145.701 221.869 140.47 195.58 155.758C169.292 171.046 150.062 210.637 147.785 249.623C145.772 284.207 150.152 319.562 158.665 353.039C166.625 384.339 173.189 417.621 167.281 448.851C160.871 482.698 141.087 511.626 120.125 537.918C99.9059 563.102 78.279 585.912 61.5472 613.254C40.4218 647.78 27.5171 689.652 25.5017 731.881" stroke="#1A5DC2" stroke-miterlimit="10"/>
<path d="M1011.94 165.639C978.557 230.225 936.094 297.406 877.499 316.114C836.429 329.081 792.299 314.152 763.841 279.06C741.565 251.589 728.554 214.17 705.675 189.128C676.956 157.743 633.781 149.426 593.972 165.647C548.957 183.865 512.711 231.081 467.545 244.842C433.7 255.164 398.819 245.196 368.281 227.984C335.027 209.241 308.475 181.183 275.665 163.733C248.264 149.224 217.748 141.968 190.948 156.554C164.406 171.013 145.505 207.905 141.175 244.737C137.092 279.538 141.424 314.937 149.597 348.161C156.95 378.034 164.901 408.952 160.676 439.743C155.953 474.122 136.909 504.237 116.098 530.056C95.6591 555.321 73.0273 577.477 55.1995 604.832C32.5617 639.577 18.3397 682.473 15.3697 725.84" stroke="#1A5DC2" stroke-miterlimit="10"/>
<path d="M1010.78 163.216C975.88 228.833 933.29 297.815 873.514 317.414C832.149 330.973 787.321 316.387 759.126 280.159C737.297 252.119 725.545 213.22 703.141 185.898C675.049 151.641 630.704 139.588 591.002 155.419C545.382 173.615 509.156 224.033 463.045 239.433C428.271 251.042 392.391 240.946 360.844 224.023C329.307 207.102 300.566 183.542 269.067 166.523C243.489 152.712 213.621 143.441 186.319 157.326C159.592 170.915 140.881 204.954 134.578 239.828C128.275 274.703 132.709 310.29 140.551 343.274C147.307 371.723 156.686 400.219 154.096 430.615C151.129 465.472 132.762 496.841 112.105 522.174C91.4483 547.508 67.7996 569.021 48.8878 596.378C24.7298 631.327 9.20044 675.25 5.26371 719.766" stroke="#1A5DC2" stroke-miterlimit="10"/>
</g>
</g>
</g>
<defs>
<clipPath id="clip0_107_1700">
<rect width="989.267" height="781.24" fill="white" transform="translate(975.641 934.108) rotate(-170.479)"/>
</clipPath>
</defs>
</svg>
