<svg width="168" height="190" viewBox="0 0 168 190" fill="none" xmlns="http://www.w3.org/2000/svg">
<path d="M-41.7491 101.62C-38.9362 46.973 6.22539 2.49416 60.8673 0.408398C110.717 -1.46879 153.326 30.8084 167.13 75.7565C169.682 84.0996 163.171 92.4426 154.472 92.4426C147.596 92.4426 141.45 88.0625 139.21 81.5445C128.584 50.8317 99.3615 28.7748 65.0345 28.7748C26.7487 28.7748 -5.02594 56.2025 -12.0059 92.4426H13.9346C13.9346 92.4426 13.9867 92.2341 14.0388 92.1298C14.1951 91.5562 14.4034 90.9826 14.6118 90.409C14.8202 89.8354 14.9764 89.2097 15.1848 88.6361C15.3411 88.2711 15.4973 87.9061 15.6536 87.5411C15.914 86.8632 16.2266 86.1853 16.5391 85.5075C16.7475 85.0903 16.9037 84.621 17.1121 84.2039C17.2684 83.8389 17.5288 83.526 17.6851 83.161C18.7269 81.0752 19.9249 79.0416 21.2272 77.1644C21.3313 77.0601 21.3834 76.9037 21.4876 76.7994C22.269 75.7565 22.9982 74.7137 23.8316 73.7229C23.8837 73.6708 23.9358 73.5665 23.9879 73.5144C24.8214 72.5236 25.7069 71.5329 26.5924 70.5943C26.7487 70.4379 26.9049 70.3336 27.0091 70.1771C27.4258 69.7078 27.8946 69.2907 28.3634 68.8735C28.9885 68.2999 29.6136 67.6742 30.2907 67.1528C30.8637 66.6313 31.4888 66.162 32.1139 65.6406C32.2702 65.5363 32.4264 65.3799 32.5827 65.2756C32.791 65.1192 32.9994 64.9106 33.2598 64.7541C33.5724 64.4934 33.937 64.2849 34.3016 64.0241C34.8225 63.6591 35.3955 63.242 35.9685 62.877C36.1248 62.7727 36.2289 62.6684 36.3331 62.6162C36.854 62.2512 37.427 61.9905 37.9479 61.6776C38.7813 61.1562 39.6669 60.6869 40.5003 60.2176C41.3337 59.7483 42.2192 59.3312 43.0527 58.914C43.2089 58.8619 43.4173 58.8097 43.5736 58.7054C44.98 58.0797 46.3864 57.5583 47.7928 57.089C47.9491 57.0368 48.1054 56.9325 48.3137 56.8804C48.3658 56.8804 48.4179 56.8804 48.47 56.8804C49.043 56.6718 49.616 56.5154 50.1889 56.359C50.7098 56.2025 51.2307 56.0461 51.7516 55.8897H51.8558C52.2204 55.7854 52.6372 55.7332 53.0018 55.6289C53.6789 55.4725 54.3561 55.3161 55.0854 55.1596H55.1895C55.7104 55.0554 56.2313 54.9511 56.7001 54.8989C56.7522 54.8468 56.8564 54.8468 56.9085 54.8468C57.4294 54.7425 57.9503 54.7425 58.4191 54.6903C59.0442 54.6382 59.6172 54.5339 60.2422 54.4818C60.3464 54.4818 60.3985 54.4818 60.5027 54.4818C61.9612 54.3253 63.4718 54.2732 64.9824 54.2732C66.7013 54.2732 68.3682 54.3775 70.035 54.5339C70.5559 54.5339 71.0769 54.6382 71.5457 54.7425C72.6916 54.8989 73.8376 55.0554 74.9315 55.2639C75.5045 55.3682 76.0774 55.4725 76.5983 55.6289C77.6922 55.8897 78.734 56.1504 79.7758 56.4632C80.2967 56.6197 80.8176 56.7761 81.3385 56.9325C82.4845 57.2976 83.6304 57.7147 84.7764 58.184C85.141 58.3404 85.5056 58.4447 85.8182 58.6011C87.2767 59.2269 88.7352 59.9569 90.1416 60.6869C90.35 60.7912 90.5583 60.9476 90.7667 61.0519C91.9647 61.7298 93.1107 62.4077 94.2046 63.1377C94.6213 63.4505 95.038 63.7113 95.5068 64.0241C96.3923 64.6499 97.2258 65.2756 98.0592 65.9535C98.528 66.3185 98.9447 66.6835 99.4135 67.0485C100.195 67.7264 100.924 68.4042 101.653 69.0821C102.07 69.4993 102.487 69.8643 102.904 70.2814C103.685 71.0636 104.414 71.8979 105.143 72.7322C105.456 73.0972 105.768 73.41 106.081 73.7751C107.019 74.9222 107.904 76.1216 108.79 77.373C109.154 77.8944 109.519 78.468 109.831 79.0416C110.3 79.8238 110.769 80.5538 111.238 81.336C111.602 82.0138 111.967 82.6917 112.332 83.3696C112.696 84.0996 113.061 84.8296 113.374 85.5596C113.686 86.2896 113.999 87.0196 114.311 87.7497C114.624 88.4797 114.884 89.2097 115.145 89.9919C115.405 90.774 115.665 91.504 115.926 92.2862C115.926 92.3905 115.978 92.4948 116.03 92.5991C116.082 92.8076 116.082 93.0162 116.134 93.1726C116.655 95.0498 117.072 96.927 117.384 98.9085C117.489 99.4821 117.593 100.108 117.645 100.681C117.957 102.924 118.114 105.166 118.114 107.512C118.114 109.859 117.905 112.101 117.645 114.343C117.593 114.969 117.489 115.542 117.384 116.116C117.072 118.097 116.655 119.975 116.134 121.852C116.134 122.008 116.082 122.217 116.03 122.425C116.03 122.53 115.978 122.582 115.926 122.686C115.665 123.52 115.405 124.303 115.145 125.085C114.884 125.815 114.676 126.493 114.363 127.171C114.051 127.953 113.738 128.735 113.374 129.465C113.061 130.143 112.748 130.821 112.384 131.499C112.019 132.229 111.655 132.959 111.238 133.689C110.873 134.366 110.404 135.044 109.988 135.722C109.571 136.348 109.206 137.026 108.738 137.652C107.904 138.851 107.019 139.998 106.133 141.145C105.716 141.614 105.3 142.084 104.883 142.553C104.258 143.283 103.633 143.961 102.956 144.691C102.487 145.16 102.018 145.63 101.497 146.099C100.82 146.725 100.143 147.35 99.4656 147.924C98.9447 148.341 98.4759 148.758 97.955 149.175C97.1737 149.801 96.4444 150.375 95.611 150.896C95.1422 151.261 94.6213 151.626 94.1525 151.939C93.1628 152.617 92.0689 153.243 91.0271 153.816C90.7146 153.973 90.4021 154.181 90.0895 154.338C88.6831 155.068 87.2767 155.745 85.8182 156.371C85.4015 156.528 84.9848 156.684 84.568 156.841C83.4742 157.258 82.3803 157.675 81.2864 158.04C80.7655 158.196 80.1925 158.353 79.6716 158.509C78.6298 158.822 77.588 159.083 76.5462 159.291C75.9733 159.396 75.4003 159.552 74.8273 159.656C73.7334 159.865 72.5874 160.021 71.4415 160.178C70.9206 160.23 70.3997 160.334 69.8788 160.386C68.2119 160.543 66.5451 160.647 64.8782 160.647C63.3676 160.647 61.857 160.595 60.3985 160.438C60.2943 160.438 60.1901 160.438 60.138 160.438C59.513 160.386 58.94 160.282 58.3149 160.23C57.794 160.178 57.2731 160.126 56.7522 160.073C56.7001 160.073 56.596 160.073 56.5439 160.021C56.0751 159.969 55.5542 159.865 55.0333 159.761C54.9812 159.761 54.9291 159.761 54.877 159.761C54.1998 159.656 53.5748 159.5 52.8976 159.343C52.4809 159.239 52.0642 159.187 51.6474 159.083H51.5433C51.0224 158.926 50.4494 158.77 49.9285 158.613C49.4076 158.457 48.8867 158.301 48.3658 158.144C48.2616 158.144 48.2095 158.144 48.1054 158.092C47.7407 157.988 47.4282 157.831 47.0636 157.675C45.8134 157.206 44.5112 156.736 43.3131 156.215C43.0006 156.111 42.7402 155.954 42.4276 155.85C41.8546 155.589 41.3337 155.276 40.7607 154.963C40.344 154.755 39.8752 154.546 39.4064 154.338C39.4064 154.338 39.3543 154.338 39.3022 154.285C38.3125 153.712 37.3749 153.138 36.4373 152.565C36.1768 152.408 35.9164 152.2 35.6039 152.043C35.0309 151.678 34.51 151.313 33.9891 150.896C33.5203 150.583 33.0515 150.27 32.6348 149.905C32.4785 149.801 32.3222 149.645 32.166 149.488C31.4888 148.967 30.8116 148.393 30.1345 147.82C29.4052 147.194 28.676 146.516 27.9467 145.838C27.5821 145.525 27.2696 145.212 26.9049 144.847C26.6966 144.639 26.4882 144.482 26.2798 144.274C25.7069 143.648 25.1339 142.97 24.5609 142.344C23.8837 141.562 23.2587 140.78 22.6336 139.998C22.269 139.529 21.8522 139.059 21.5397 138.59C21.4355 138.486 21.3834 138.329 21.2793 138.225C20.6542 137.339 20.0291 136.4 19.4561 135.461C19.1957 135.044 18.8831 134.627 18.6748 134.21C18.5706 134.054 18.5185 133.897 18.4143 133.741C18.0497 133.115 17.7372 132.489 17.3725 131.811C17.1642 131.394 16.9037 131.029 16.7475 130.612C16.5912 130.247 16.4349 129.882 16.2787 129.517C15.914 128.683 15.5494 127.848 15.2369 127.014C15.0806 126.597 14.8723 126.232 14.716 125.815C14.5597 125.293 14.4034 124.772 14.1951 124.25C14.0388 123.729 13.8825 123.26 13.7263 122.738C13.7263 122.634 13.6742 122.53 13.6221 122.425H-12.3185C-5.39058 158.718 26.4361 186.145 64.7219 186.145C98.2155 186.145 126.813 165.131 138.064 135.566C141.033 127.744 148.221 122.425 156.556 122.425H157.077C164.265 122.425 169.526 129.308 167.599 136.244C155.097 181.4 113.738 214.512 64.6698 214.512C3.77718 214.512 -45.2912 163.515 -42.0616 101.829L-41.7491 101.62Z" fill="#E3F2FF"/>
</svg>
