<svg width="14" height="11" viewBox="0 0 14 11" fill="none" xmlns="http://www.w3.org/2000/svg">
<path d="M5.21625 10.5007C5.10199 10.5003 4.98902 10.4764 4.88437 10.4306C4.77972 10.3847 4.68562 10.3178 4.60792 10.234L0.557917 5.92566C0.406522 5.76432 0.325421 5.54945 0.332453 5.32831C0.339486 5.10717 0.434077 4.89789 0.595417 4.74649C0.756757 4.5951 0.97163 4.514 1.19277 4.52103C1.4139 4.52806 1.62319 4.62265 1.77458 4.78399L5.20792 8.44232L12.2162 0.775658C12.2874 0.687093 12.3758 0.614003 12.4762 0.560877C12.5766 0.507751 12.6868 0.475711 12.8001 0.466724C12.9133 0.457737 13.0272 0.471993 13.1347 0.508617C13.2422 0.545241 13.3411 0.603459 13.4253 0.679696C13.5095 0.755933 13.5772 0.848579 13.6243 0.951943C13.6714 1.05531 13.6969 1.16721 13.6992 1.28077C13.7014 1.39434 13.6805 1.50717 13.6376 1.61233C13.5946 1.7175 13.5307 1.81278 13.4496 1.89232L5.83292 10.2257C5.75595 10.311 5.66218 10.3794 5.55749 10.4267C5.4528 10.4741 5.33946 10.4992 5.22458 10.5007H5.21625Z" fill="#2C7434"/>
</svg>
