<svg width="39" height="39" viewBox="0 0 39 39" fill="none" xmlns="http://www.w3.org/2000/svg">
<path d="M5.71514 19.4595C8.27717 19.4595 10.3531 17.3836 10.3531 14.8215C10.3531 12.2595 8.27717 10.1836 5.71514 10.1836C3.15312 10.1836 1.07717 12.2595 1.07717 14.8215C1.07717 17.3836 3.15312 19.4595 5.71514 19.4595ZM5.71514 12.7152C6.8797 12.7152 7.82148 13.657 7.82148 14.8215C7.82148 15.9861 6.8797 16.9279 5.71514 16.9279C4.55059 16.9279 3.60881 15.9861 3.60881 14.8215C3.60881 13.657 4.55059 12.7152 5.71514 12.7152ZM32.7227 19.4595C35.2848 19.4595 37.3607 17.3836 37.3607 14.8215C37.3607 12.2595 35.2848 10.1836 32.7227 10.1836C30.1607 10.1836 28.0848 12.2595 28.0848 14.8215C28.0848 17.3836 30.1607 19.4595 32.7227 19.4595ZM32.7227 12.7152C33.8873 12.7152 34.8291 13.657 34.8291 14.8215C34.8291 15.9861 33.8873 16.9279 32.7227 16.9279C31.5582 16.9279 30.6164 15.9861 30.6164 14.8215C30.6164 13.657 31.5582 12.7152 32.7227 12.7152ZM38.3531 29.2519L37.7962 25.8798C37.6139 24.7962 37.0569 23.8038 36.2265 23.0949C35.386 22.3861 34.3227 21.9911 33.2291 21.9911H32.7126C32.0139 21.9911 31.4468 22.5582 31.4468 23.257C31.4468 23.9557 32.0139 24.5228 32.7126 24.5228H33.2291C33.7253 24.5228 34.2113 24.695 34.586 25.019C34.9607 25.3431 35.2139 25.7886 35.305 26.2848L35.862 29.657C35.9126 29.9507 35.8924 30.2747 35.8215 30.5583C35.7405 30.8519 35.5987 31.1253 35.3962 31.3684C35.2038 31.6013 34.9607 31.7836 34.6873 31.9152C34.4038 32.0469 34.0898 32.1177 33.7962 32.1177H28.3582L27.3658 24.1684C27.1734 22.6392 26.4341 21.2418 25.2797 20.2089C24.1354 19.1861 22.6367 18.619 21.0873 18.619H17.3708C15.8417 18.619 14.3531 19.176 13.1784 20.2089C12.024 21.2418 11.2848 22.6392 11.0924 24.1684L10.1 32.1177H4.65185C4.35818 32.1177 4.04427 32.0469 3.76072 31.9152C3.49743 31.7937 3.24425 31.6114 3.05185 31.3684C2.84932 31.1253 2.70755 30.8519 2.62653 30.5785C2.54552 30.2747 2.52526 29.9507 2.5759 29.657L3.143 26.2848C3.22401 25.7886 3.47717 25.3329 3.86198 25.019C4.23666 24.695 4.72273 24.5228 5.21894 24.5228H5.7354C6.43414 24.5228 7.00122 23.9557 7.00122 23.257C7.00122 22.5582 6.43414 21.9911 5.7354 21.9911H5.21894C4.12526 21.9911 3.06198 22.3861 2.22148 23.0949C1.3911 23.8038 0.824005 24.7962 0.651853 25.8696L0.0847666 29.2418C-0.0266258 29.8798 0.0138713 30.5684 0.186023 31.2367C0.368302 31.8848 0.682239 32.4722 1.11768 32.9987C1.55313 33.5253 2.11007 33.9405 2.71767 34.2241C3.33539 34.5076 4.00376 34.6494 4.66199 34.6494H10.1708C10.1708 34.6494 10.181 34.7304 10.1911 34.7608C10.3936 35.4089 10.7177 35.9861 11.1531 36.462C11.5886 36.9582 12.1354 37.3633 12.7329 37.6165C13.3303 37.8798 13.9886 38.0215 14.6367 38.0215H23.862C24.5101 38.0215 25.1683 37.8798 25.7556 37.6165C26.3531 37.3532 26.9 36.9481 27.3354 36.4519C27.7708 35.9557 28.105 35.3785 28.2974 34.7506C28.3076 34.7101 28.3076 34.6798 28.3177 34.6393H33.8063C34.4645 34.6393 35.1329 34.4874 35.7506 34.2139C36.3582 33.9405 36.9151 33.5152 37.3506 32.9886C37.786 32.4722 38.1 31.8747 38.2822 31.2063C38.4544 30.5582 38.4848 29.8696 38.3734 29.2316L38.3531 29.2519ZM25.8468 34.0114C25.7557 34.2949 25.6037 34.5582 25.4113 34.781C25.2088 35.0038 24.9658 35.1861 24.7025 35.3076C24.4291 35.4291 24.1253 35.4899 23.8316 35.4899H14.6063C14.3126 35.4899 14.0088 35.4291 13.7354 35.3076C13.4721 35.1861 13.2291 35.0139 13.0164 34.7709C12.824 34.5582 12.6822 34.3051 12.5911 34.0114C12.4999 33.738 12.4797 33.4241 12.5202 33.1304L13.6037 24.4823C13.7151 23.5709 14.1607 22.7203 14.8493 22.1127C15.5582 21.4949 16.4493 21.1608 17.3708 21.1608H21.0873C22.0189 21.1608 22.9101 21.495 23.5987 22.1026C24.2974 22.7203 24.743 23.5709 24.8544 24.4823L25.9379 33.1304C25.9784 33.4241 25.948 33.738 25.867 34.0114H25.8468ZM19.2038 16.1279C23.6493 16.1279 27.2645 12.5127 27.2645 8.0671C27.2645 3.62153 23.6493 0.00634766 19.2038 0.00634766C14.7582 0.00634766 11.143 3.62153 11.143 8.0671C11.143 12.5127 14.7582 16.1279 19.2038 16.1279ZM19.2038 2.53799C22.2519 2.53799 24.7329 5.019 24.7329 8.0671C24.7329 11.1152 22.2519 13.5962 19.2038 13.5962C16.1557 13.5962 13.6746 11.1152 13.6746 8.0671C13.6746 5.019 16.1557 2.53799 19.2038 2.53799ZM15.5582 9.23165C15.062 8.73545 15.062 7.93546 15.5582 7.43926C16.0544 6.94305 16.8544 6.94305 17.3506 7.43926L18.2417 8.32026L20.8949 5.6671C21.3911 5.1709 22.1911 5.1709 22.6873 5.6671C23.1835 6.16331 23.1835 6.96329 22.6873 7.4595L19.143 11.0038C18.8999 11.2468 18.5759 11.3785 18.2519 11.3785C17.9278 11.3785 17.6038 11.257 17.3607 11.0139L15.5784 9.24179L15.5582 9.23165Z" fill="white"/>
</svg>
