<svg width="35" height="39" viewBox="0 0 35 39" fill="none" xmlns="http://www.w3.org/2000/svg">
<path d="M27.4222 22.49V4.62C27.4222 2.49 25.6822 0.75 23.5522 0.75H8.67218C8.49218 0.75 8.33219 0.790006 8.18219 0.850006C8.15219 0.860006 8.13217 0.890004 8.10217 0.910004C7.98217 0.970004 7.87223 1.04001 7.78223 1.14001C7.78223 1.14001 7.77221 1.13999 7.76221 1.14999C6.38221 2.63999 4.94217 4.21001 3.47217 5.82001L1.14221 8.37C1.14221 8.37 1.12217 8.4 1.10217 8.41L1.08221 8.42999C1.08221 8.42999 1.04222 8.48999 1.02222 8.51999C0.952217 8.60999 0.882224 8.7 0.842224 8.81C0.802224 8.91 0.792217 9.02001 0.772217 9.14001C0.772217 9.18001 0.742188 9.21999 0.742188 9.26999V28.99C0.742188 31.12 2.48218 32.86 4.61218 32.86H18.5322C19.5922 36.01 22.5722 38.28 26.0722 38.28C30.4622 38.28 34.0322 34.71 34.0322 30.32C34.0322 26.39 31.1622 23.12 27.4122 22.48L27.4222 22.49ZM7.42218 5.20001V6.94C7.42218 7.54 6.94222 8.01999 6.34222 8.01999H4.84222L5.31219 7.51001C6.02219 6.73001 6.72218 5.96001 7.42218 5.20001ZM4.62219 30.37C3.86219 30.37 3.2522 29.76 3.2522 29V10.52H6.34222C8.31222 10.52 9.92218 8.91 9.92218 6.94V3.25H23.5522C24.3122 3.25 24.9222 3.86 24.9222 4.62V22.46C24.0322 22.59 23.1922 22.86 22.4222 23.26V16.8C22.4222 16.11 21.8622 15.55 21.1722 15.55C20.4822 15.55 19.9222 16.11 19.9222 16.8V25.16C19.9222 25.16 19.9422 25.23 19.9422 25.26C18.8022 26.64 18.1222 28.4 18.1222 30.32C18.1222 30.33 18.1222 30.35 18.1222 30.36H4.62219V30.37ZM26.0822 35.79C23.0722 35.79 20.6222 33.34 20.6222 30.33C20.6222 27.32 23.0722 24.87 26.0822 24.87C29.0922 24.87 31.5422 27.32 31.5422 30.33C31.5422 33.34 29.0922 35.79 26.0822 35.79ZM29.5022 27.97C29.9922 28.46 29.9922 29.25 29.5022 29.74L26.0022 33.24C25.7722 33.47 25.4522 33.61 25.1222 33.61C24.7922 33.61 24.4722 33.48 24.2422 33.24L22.4922 31.48C22.0022 30.99 22.0122 30.2 22.4922 29.71C22.9822 29.22 23.7722 29.23 24.2622 29.71L25.1322 30.58L27.7422 27.97C28.2322 27.48 29.0222 27.48 29.5122 27.97H29.5022ZM8.2522 17.72V25.17C8.2522 25.86 7.6922 26.42 7.0022 26.42C6.3122 26.42 5.7522 25.86 5.7522 25.17V17.72C5.7522 17.03 6.3122 16.47 7.0022 16.47C7.6922 16.47 8.2522 17.03 8.2522 17.72ZM12.9722 12.04V25.17C12.9722 25.86 12.4122 26.42 11.7222 26.42C11.0322 26.42 10.4722 25.86 10.4722 25.17V12.04C10.4722 11.35 11.0322 10.79 11.7222 10.79C12.4122 10.79 12.9722 11.35 12.9722 12.04ZM17.7022 14.93V25.17C17.7022 25.86 17.1422 26.42 16.4522 26.42C15.7622 26.42 15.2022 25.86 15.2022 25.17V14.93C15.2022 14.24 15.7622 13.68 16.4522 13.68C17.1422 13.68 17.7022 14.24 17.7022 14.93Z" fill="white"/>
</svg>
