<svg width="49" height="48" viewBox="0 0 49 48" fill="none" xmlns="http://www.w3.org/2000/svg">
<path d="M17 42.4029L16.0474 34.2031C15.9164 33.0427 15.3925 31.9726 14.5827 31.199C13.773 30.4255 12.7251 30 11.6416 30H8.37886C7.29527 30 6.2593 30.4384 5.43767 31.199C4.62795 31.9726 4.10402 33.0427 3.97303 34.2031L3.02041 42.4029C2.97278 42.8541 3.0085 43.3183 3.12758 43.7438C3.24666 44.1821 3.46099 44.5818 3.73486 44.917C4.00874 45.2522 4.35408 45.5359 4.73512 45.7164C5.11617 45.8969 5.53292 46 5.94969 46H14.035C14.4518 46 14.8685 45.9097 15.2496 45.7164C15.6306 45.5359 15.976 45.2522 16.2498 44.917C16.5237 44.5818 16.738 44.1821 16.8571 43.7438C16.9762 43.3054 17.0119 42.8541 16.9643 42.4029H17Z" stroke="black" stroke-width="2.5" stroke-linecap="round" stroke-linejoin="round"/>
<path d="M9.96484 26.688C13.2768 26.688 15.9648 24 15.9648 20.688C15.9648 17.376 13.2768 14.688 9.96484 14.688C6.65284 14.688 3.96484 17.376 3.96484 20.688C3.96484 24 6.65284 26.688 9.96484 26.688Z" stroke="black" stroke-width="2.5"/>
<path d="M39.0037 11.7239H23.7637" stroke="black" stroke-width="2.5" stroke-linecap="round" stroke-linejoin="round"/>
<path d="M39.0048 17.652H28.3008" stroke="black" stroke-width="2.5" stroke-linecap="round" stroke-linejoin="round"/>
<path d="M9.41211 14.688V7.30796C9.41211 5.49596 10.8881 4.01996 12.7001 4.01996H42.7121C44.5241 4.01996 46.0001 5.49596 46.0001 7.30796V31.944C46.0001 33.756 44.5241 35.232 42.7121 35.232H16.0481" stroke="black" stroke-width="2.5" stroke-linecap="round" stroke-linejoin="round"/>
<path d="M16.1807 36.144L28.7447 23.592" stroke="black" stroke-width="2.5" stroke-linecap="round" stroke-linejoin="round"/>
</svg>
