<svg width="16" height="16" fill="none" xmlns="http://www.w3.org/2000/svg"><path d="M9.067.641l6.6 6.6c.1.1.17.209.213.325.042.117.063.242.062.375 0 .134-.021.259-.063.375a.889.889 0 01-.212.325l-6.6 6.6a.976.976 0 01-.688.287.931.931 0 01-.712-.287.937.937 0 01-.313-.688.925.925 0 01.288-.712l4.9-4.9H1.367a.968.968 0 01-.713-.288.964.964 0 01-.287-.712.97.97 0 01.287-.713.963.963 0 01.713-.287h11.175l-4.9-4.9a.994.994 0 01-.288-.7.868.868 0 01.288-.7c.183-.2.417-.3.7-.3s.525.1.725.3z" fill="#0952A9"/></svg>