<svg width="30" height="30" fill="none" xmlns="http://www.w3.org/2000/svg"><path d="M11.25 10.988v8.024c0 .6.262 1.038.787 1.313.525.275 1.038.25 1.538-.075l6.225-3.975c.475-.275.712-.7.712-1.275s-.237-1-.712-1.275L13.575 9.75c-.5-.325-1.012-.35-1.537-.075-.526.275-.788.712-.788 1.313zM15 30c-2.075 0-4.025-.394-5.85-1.182-1.825-.787-3.413-1.856-4.763-3.206-1.35-1.35-2.418-2.937-3.205-4.762C.394 19.025 0 17.075 0 15c0-2.075.394-4.025 1.182-5.85.787-1.825 1.856-3.413 3.206-4.763 1.35-1.35 2.937-2.418 4.762-3.206C10.975.393 12.925 0 15 0c2.075 0 4.025.394 5.85 1.18a15.159 15.159 0 014.762 3.208c1.35 1.35 2.419 2.937 3.206 4.762C29.606 10.975 30 12.925 30 15c0 2.075-.394 4.025-1.182 5.85-.787 1.825-1.856 3.412-3.206 4.762-1.35 1.35-2.937 2.419-4.762 3.206C19.025 29.606 17.075 30 15 30zm0-3c3.325 0 6.157-1.169 8.494-3.506C25.831 21.157 27 18.325 27 15s-1.169-6.156-3.506-8.495C21.157 4.168 18.325 3 15 3S8.844 4.168 6.507 6.505C4.169 8.845 3 11.675 3 15c0 3.325 1.169 6.157 3.507 8.494C8.844 25.831 11.675 27 15 27z" fill="#01397B"/></svg>