<svg width="300" height="239" fill="none" xmlns="http://www.w3.org/2000/svg"><g opacity=".15" clip-path="url(#clip0_107_1561)" stroke="#FFF7F7" stroke-miterlimit="10"><path d="M341.824 426.048c28.871-20.905 27.042-66.503 7.162-95.716-19.888-29.206-52.178-47.04-81.192-67.325-29.015-20.286-57.431-47.045-62.203-82.088-6.099-44.799 28.437-88.582 20.445-133.073-6.226-34.678-36.848-58.894-68.093-71.315-17.664-7.025-37.606-8.425-55.768-13.945C19.807-62.462-47.842-6.44-100.701-43.632c-57.231-40.284-58.02-90.274-49.779-115.574 10.561-32.416 48.464-105.324 134.22-92.71 34.836 5.124 70.497 9.017 105.44 4.122 52.32-7.323 100.499-52.389 100.144-104.88-.254-35.975-21.59-71.753-10.966-106.228 7.139-23.163 28.156-40.445 51.377-47.814 23.213-7.362 48.351-5.973 72.141-1.204"/><path d="M339.464 426.101c28.692-22.585 28.132-69.095 8.087-99.578-19.566-29.759-52.19-48.07-81.753-67.846-29.219-19.546-57.848-44.784-63.926-78.485-7.73-43.086 23.528-86.274 15.335-130.507-6.604-35.172-35.217-60.409-65.639-74.582-17.483-8.138-37.686-10.971-56.477-16.963-79.67-25.428-145.904 27.953-197.687-8.365-55.675-39.082-57.654-87.696-50.026-113.118 9.664-32.216 46.364-102.272 129.12-91.957 34.12 4.255 69.424 7.113 104.004 2.105 50.958-7.269 97.748-50.396 98.647-101.095.617-35.078-18.963-70.488-8.579-104.628 7.058-23.369 27.179-41.044 49.617-49.475 22.439-8.43 47.548-8.804 71.577-5.3"/><path d="M337.096 426.161c28.512-24.249 29.214-71.679 9.019-103.445-20.195-31.767-52.187-49.101-82.321-68.361-30.134-19.259-58.271-42.53-65.65-74.896-9.36-41.359 18.717-83.985 10.213-127.943-6.901-35.67-33.593-61.975-63.194-77.856-17.299-9.28-37.766-13.503-57.185-19.982C10.977-72.005-53.8-21.387-104.513-56.825c-54.126-37.887-57.275-85.119-50.274-110.661 8.767-32.003 44.288-99.258 124.007-91.206 33.41 3.379 68.342 5.202 102.58.089 49.597-7.23 95.006-48.425 97.145-97.303 1.494-34.189-16.336-69.225-6.208-103.028 6.986-23.584 26.218-41.658 47.859-51.151 22.081-9.677 46.751-11.643 71.011-9.397"/><path d="M334.726 426.222c28.341-25.921 30.289-74.242 9.953-107.314-18.953-30.822-52.185-50.146-82.882-68.882-30.697-18.735-58.695-40.262-67.373-71.293-10.991-39.647 13.838-81.676 5.088-125.378-7.242-36.17-31.974-63.579-60.74-81.123-17.123-10.444-37.84-16.027-57.908-23C6.514-76.607-56.794-28.86-106.44-63.419c-52.576-36.692-56.894-82.541-50.521-108.205 7.899-31.787 42.25-96.293 118.908-90.453 32.738 2.495 67.256 3.21 101.15-1.936 48.219-7.315 92.287-46.46 95.642-93.524 2.379-33.307-13.629-67.937-3.821-101.429 6.963-23.774 25.25-42.294 46.099-52.812 20.849-10.518 45.947-14.475 70.439-13.501"/><path d="M332.366 426.275c28.168-27.593 31.348-76.805 10.877-111.175-18.668-31.34-52.167-51.191-83.45-69.396s-59.111-38.001-69.104-67.698c-12.613-37.926 8.967-79.374-.028-122.805-7.583-36.671-30.354-65.226-58.301-84.39-16.946-11.624-37.92-18.544-58.617-26.02C2.019-81.105-59.803-36.319-108.371-70.003c-51.02-35.506-56.501-79.95-50.769-105.75 7.024-31.565 40.244-93.371 113.801-89.693 32.074 1.605 66.169 1.276 99.729-3.953 46.851-7.312 89.581-44.51 94.146-89.739 3.272-32.446-10.988-66.658-1.435-99.828 6.904-23.974 24.29-42.952 44.347-54.481 20.057-11.529 45.143-17.306 69.874-17.597"/><path d="M329.997 426.335c27.982-29.265 32.409-79.367 11.811-115.042-18.392-31.851-52.15-52.236-84.011-69.918-29.976-16.63-59.594-35.72-70.828-64.095-14.325-36.18 4.074-77.065-5.144-120.248-7.938-37.171-28.725-66.909-55.848-87.656-16.768-12.832-37.994-21.054-59.326-29.038C-2.473-85.524-62.775-43.8-110.267-76.595c-49.47-34.311-56.113-77.365-51.016-103.293 6.163-31.343 38.283-90.507 108.695-88.934 31.425.701 65.095-.658 98.298-5.978 45.484-7.295 86.907-42.572 92.651-85.953 4.188-31.593-8.34-65.387.937-98.229 6.831-24.173 23.33-43.624 42.595-56.149 20.447-13.286 44.354-20.137 69.302-21.701"/><path d="M327.629 426.396c27.81-30.938 33.452-81.917 12.743-118.911-18.123-32.355-52.131-53.295-84.587-70.439-30.149-15.919-60.018-33.453-72.558-60.499-15.956-34.453-.812-74.765-10.26-117.677-8.288-37.664-27.081-68.62-53.402-90.93-16.583-14.047-38.07-23.549-60.035-32.057C-7.018-89.879-65.784-51.273-112.2-83.196c-47.913-33.109-55.712-74.764-51.255-100.829 5.308-31.113 36.354-87.714 103.595-88.182 30.806-.216 64.015-2.583 96.869-8.001 44.116-7.278 84.261-40.65 91.155-82.168 5.104-30.754-5.706-64.115 3.323-96.629 6.766-24.38 22.372-44.326 40.836-57.811 19.898-14.523 43.549-22.968 68.737-25.796"/><path d="M325.26 426.456c27.631-32.602 34.483-84.466 13.669-122.772-17.854-32.858-52.091-54.361-85.155-70.953-30.308-15.222-60.449-31.177-74.274-56.903-17.602-32.727-5.713-72.449-15.384-115.112-8.643-38.164-25.412-70.368-50.949-94.197-16.38-15.29-38.151-26.037-60.743-35.075-63.99-25.59-121.195 9.817-166.534-21.218-46.364-31.914-55.303-72.171-51.503-98.373 4.462-30.875 34.451-84.986 98.482-87.429 30.209-1.156 62.933-4.509 95.446-10.018 42.756-7.254 81.646-38.741 89.659-78.383 6.05-29.928-3.072-62.844 5.702-95.037 6.7-24.586 21.401-45.042 39.084-59.479 19.352-15.79 42.754-25.807 68.172-29.893"/><path d="M322.899 426.509c27.459-34.273 35.52-87.007 14.602-126.639-17.607-33.355-52.058-55.435-85.716-71.475-30.467-14.525-60.873-28.91-75.998-53.3-19.232-30.999-10.614-70.148-20.5-112.54-9.007-38.658-23.729-72.13-48.503-97.47C90.612-51.459 68.55-63.426 45.318-73.01-16.14-98.362-71.757-66.219-116.028-96.374c-44.807-30.726-54.887-69.57-51.75-95.917 3.637-30.629 32.587-82.351 93.383-86.677 29.628-2.109 61.86-6.427 94.016-12.042 41.388-7.222 79.068-36.837 88.163-74.598 7.011-29.102-.429-61.579 8.089-93.436 6.627-24.786 20.422-45.781 37.325-61.14 18.79-17.072 41.949-28.639 67.6-33.997"/><path d="M320.531 426.57c27.28-35.954 36.534-89.543 15.526-130.501-17.353-33.845-52.016-56.516-86.283-71.989-30.619-13.835-61.298-26.641-77.73-49.705-20.862-29.272-15.521-67.84-25.615-109.981-9.378-39.16-22.03-73.922-46.057-100.73-15.955-17.816-38.317-30.97-62.175-41.114-58.947-25.064-112.956 3.78-156.157-25.509-43.258-29.532-54.465-66.963-52.006-93.454 2.82-30.391 30.742-79.805 88.277-85.918 29.062-3.091 60.771-8.346 92.593-14.059 40.028-7.197 76.527-34.94 86.668-70.812 7.994-28.297 2.197-60.316 10.461-91.836 6.554-25.001 19.435-46.527 35.572-62.809 18.215-18.369 41.16-31.47 67.035-38.093"/><path d="M318.162 426.63c27.101-37.618 37.549-92.078 16.459-134.369-17.121-34.327-51.967-57.603-86.844-72.51-30.776-13.153-61.714-24.38-79.453-46.101-22.493-27.545-20.437-65.525-30.732-107.41-9.748-39.645-20.308-75.719-43.61-104.004-15.723-19.087-38.416-33.414-62.884-44.132-56.455-24.719-108.837.754-150.969-27.641-41.709-28.337-54.027-64.354-52.253-90.997 2.009-30.146 28.922-77.353 83.177-85.166 28.52-4.109 59.698-10.265 91.164-16.083 38.666-7.158 74.03-33.042 85.172-67.027 9.008-27.492 4.817-59.045 12.847-90.236 6.481-25.2 18.429-47.296 33.821-64.478 17.625-19.68 40.356-34.3 66.47-42.188"/><path d="M315.803 426.684c26.928-39.29 38.548-94.599 17.392-138.237-16.883-34.817-51.927-58.699-87.413-73.025-30.919-12.484-62.131-22.105-81.184-42.506-24.109-25.817-25.352-63.21-35.855-104.845-10.127-40.139-18.572-77.53-41.158-107.27C72.11-59.574 49.071-75.044 23.993-86.35c-53.978-24.33-104.717-2.273-145.78-29.787-40.153-27.136-53.582-61.754-52.501-88.542 1.207-29.906 27.114-75.009 78.064-84.413 27.987-5.163 58.624-12.169 89.741-18.1 37.298-7.112 71.578-31.142 83.677-63.241 10.056-26.679 7.443-57.782 15.226-88.644 6.408-25.414 17.415-48.072 32.061-66.139 17.022-21.007 39.56-37.14 65.898-46.293"/><path d="M313.434 426.744c26.742-40.962 39.547-97.12 18.317-142.098-16.659-35.293-51.869-59.808-87.973-73.546-31.069-11.823-62.547-19.844-82.907-38.903-25.733-24.097-30.275-60.902-40.965-102.28C109.402 29.285 103.094-9.43 81.195-40.627 65.98-62.287 42.574-78.879 16.887-90.789c-51.525-23.905-100.66-5.213-140.592-31.933-38.65-25.869-53.129-59.144-52.748-86.085.426-29.659 25.31-72.783 72.965-83.661 27.463-6.268 57.542-14.08 88.311-20.124C20.76-319.65 54-341.826 66.997-372.041c11.128-25.871 10.062-56.511 17.605-87.037 6.328-25.621 16.386-48.848 30.309-67.807 16.41-22.341 38.756-39.971 65.333-50.389"/><path d="M311.065 426.804c26.57-42.634 40.532-99.641 19.25-145.966-16.442-35.775-51.813-60.917-88.541-74.059-31.205-11.163-62.964-17.584-84.624-35.308-27.355-22.377-35.205-58.587-46.088-99.715-10.89-41.12-15.03-81.173-36.266-113.804C59.86-65.008 36.06-82.686 9.78-95.228c-49.081-23.443-96.547-8.232-135.397-34.071-38.849-25.839-52.669-56.543-52.994-83.629-.356-29.413 23.495-70.675 67.858-82.902 26.941-7.431 56.468-15.984 86.881-22.148 34.583-7.011 66.817-27.309 80.678-55.664 12.243-25.047 12.69-55.247 19.984-85.444 6.248-25.828 15.336-49.633 28.55-69.469 15.77-23.676 37.96-42.809 64.761-54.492"/><path d="M308.697 426.865c26.391-44.299 41.509-102.156 20.183-149.834-16.226-36.259-51.748-62.048-89.11-74.574-31.354-10.517-63.372-15.329-86.355-31.712-28.978-20.657-40.135-56.273-51.204-97.142-11.276-41.607-13.234-82.998-33.82-117.08C53.74-67.727 29.525-86.471 2.66-99.681c-46.667-22.939-92.427-11.259-130.207-36.217-35.551-23.48-52.195-53.94-53.243-81.173-1.121-29.18 21.657-68.683 62.752-82.142 26.4-8.647 55.386-17.881 85.459-24.165 33.22-6.943 64.502-25.369 79.182-51.878 13.402-24.209 15.302-53.984 22.37-83.845 6.16-26.028 14.279-50.425 26.799-71.137 15.116-25.026 37.163-45.633 64.196-58.588"/><path d="M306.336 426.918c26.219-45.971 42.479-104.677 21.108-153.695-16.016-36.735-51.689-63.187-89.67-75.095-31.489-9.87-63.788-13.069-88.078-28.109-30.594-18.944-45.066-53.958-56.328-94.578C81.7 33.341 81.944-9.38 62.002-44.904c-14.353-25.559-39.014-45.34-66.441-59.225-44.262-22.413-88.3-14.277-125.012-38.355-33.994-22.293-51.713-51.33-53.49-78.717-1.879-28.939 19.778-66.809 57.653-81.389 25.832-9.951 54.319-19.777 84.029-26.19 31.866-6.88 62.23-23.398 77.686-48.092 14.604-23.339 17.915-52.721 24.75-82.237 6.072-26.243 13.213-51.211 25.04-72.813 14.438-26.37 36.358-48.465 63.63-62.685"/><path d="M303.967 426.978c26.041-47.65 43.442-107.192 22.034-157.57-15.815-37.204-51.632-64.325-90.239-75.609-31.629-9.246-64.196-10.815-89.808-24.513-32.216-17.239-50.004-51.638-61.437-92.014C72.45 34.684 74.92-9.388 55.597-46.347c-14.031-26.857-39.176-47.64-67.15-62.243-41.88-21.851-84.18-17.303-119.823-40.501-32.437-21.105-51.216-48.735-53.737-76.261-2.623-28.698 17.845-65.04 52.54-80.637 25.23-11.336 53.25-21.659 82.606-28.206 30.51-6.805 60-21.382 76.19-44.307 15.841-22.432 20.527-51.458 27.13-80.645 5.991-26.45 12.132-51.996 23.279-74.475 13.763-27.713 35.563-51.302 63.059-66.788"/><path d="M301.6 427.039c25.86-49.315 44.396-109.7 22.959-161.431-15.606-37.681-51.566-65.486-90.8-76.131-31.764-8.614-64.589-8.604-91.532-20.91-33.807-15.591-54.942-49.316-66.56-89.449C63.197 36.043 67.901-9.357 49.2-47.767c-13.71-28.157-39.362-49.92-67.866-65.255-39.514-21.275-80.014-20.401-114.634-42.647-30.834-19.975-50.719-46.139-53.985-73.805-3.265-27.665 15.834-63.368 47.441-79.884 24.544-12.826 52.175-23.534 81.176-30.231 29.156-6.729 57.8-19.336 74.695-40.522 17.12-21.478 23.139-50.194 29.515-79.044 5.897-26.658 11.039-52.782 21.528-76.143 13.057-29.058 34.759-54.134 62.494-70.884"/><path d="M299.238 427.092c25.689-50.987 45.336-112.208 23.892-165.299-15.411-38.157-51.507-66.654-91.368-76.645-31.904-8.004-65.012-6.351-93.263-17.315-35.43-13.87-59.886-47.001-71.676-86.876C53.946 37.402 60.913-9.34 42.795-49.195 29.405-78.651 3.223-101.343-25.78-117.47c-37.178-20.671-75.895-23.427-109.439-44.785-29.284-18.78-50.2-43.55-54.231-71.348-4.097-28.232 13.708-61.774 42.333-79.126 23.774-14.406 51.1-25.408 79.754-32.247 28.653-6.839 55.618-17.223 73.2-36.736 18.44-20.467 25.736-48.932 31.894-77.452 5.795-26.873 9.936-53.561 19.768-77.805 12.344-30.395 33.97-56.964 61.929-74.98"/><path d="M296.871 427.153c25.502-52.66 46.283-114.709 24.824-169.168-15.224-38.626-51.44-67.828-91.928-77.166-32.038-7.386-65.429-4.09-94.979-13.718-37.06-12.159-64.913-44.653-76.8-84.312-13.374-44.01-4.056-92.121-21.574-133.42-13.04-30.752-39.82-54.34-69.29-71.298-34.85-20.06-71.776-26.454-104.251-46.931-27.735-17.586-49.681-40.962-54.479-68.893-4.798-27.931 11.453-60.226 37.235-78.373 22.875-16.092 50.039-27.268 78.323-34.271 26.445-6.548 53.45-15.067 71.705-32.951 19.781-19.388 28.29-47.685 34.273-75.845 5.648-27.089 8.82-54.341 18.016-79.473 11.615-31.733 33.166-59.796 61.357-79.084"/><path d="M294.502 427.213c25.331-54.331 47.134-117.19 25.75-173.028-15.09-39.075-51.381-69.011-92.497-77.68-32.186-6.785-65.853-1.822-96.703-10.116-38.69-10.431-69.82-42.345-81.908-81.747C35.392 40.14 46.957-9.286 30.015-52.05c-12.688-32.05-40.098-56.476-69.998-74.317-32.56-19.428-67.664-29.473-99.063-49.077-26.178-16.399-49.139-38.38-54.726-66.437-5.523-27.792 9.043-58.69 32.121-77.62 21.812-17.88 48.978-29.113 76.887-36.289 25.096-6.449 51.27-12.844 70.209-29.166 21.14-18.228 30.909-46.413 36.652-74.252 5.576-27.303 7.702-55.105 16.265-81.141 10.879-33.064 32.369-62.635 60.791-83.18"/><path d="M292.133 427.273c25.159-56.003 48.141-119.718 26.683-176.895-14.851-39.566-51.313-70.215-93.065-78.195-32.319-6.182-66.276.431-98.434-6.52-40.32-8.719-74.736-40.03-87.03-79.182-14.124-44.99-.32-95.736-16.677-139.96-12.338-33.349-40.424-58.54-70.714-77.329-30.284-18.781-63.544-32.498-93.875-51.208-24.621-15.196-48.604-35.805-54.973-63.98-6.237-27.58 6.456-57.131 27.015-76.861 20.558-19.731 47.915-30.958 75.463-38.306 23.755-6.343 49.083-10.556 68.706-25.373 22.505-16.988 33.543-45.143 39.038-72.653 5.496-27.51 6.578-55.877 14.506-82.802 10.128-34.395 31.565-65.466 60.22-87.283"/></g><defs><clipPath id="clip0_107_1561"><path fill="#fff" transform="translate(.247)" d="M0 0h299.754v238.937H0z"/></clipPath></defs></svg>