<svg width="300" height="239" viewBox="0 0 300 239" fill="none" xmlns="http://www.w3.org/2000/svg">
<g opacity="0.15" clip-path="url(#clip0_107_1561)">
<path d="M341.824 426.048C370.695 405.143 368.866 359.545 348.986 330.332C329.098 301.126 296.808 283.292 267.794 263.007C238.779 242.721 210.363 215.962 205.591 180.919C199.492 136.12 234.028 92.3368 226.036 47.8462C219.81 13.1683 189.188 -11.0477 157.943 -23.4691C140.279 -30.4944 120.337 -31.8939 102.175 -37.4138C19.8072 -62.4625 -47.8415 -6.44132 -100.701 -43.6325C-157.932 -83.9164 -158.721 -133.906 -150.48 -159.206C-139.919 -191.622 -102.016 -264.53 -16.26 -251.916C18.5758 -246.792 54.2373 -242.899 89.1809 -247.794C141.5 -255.117 189.679 -300.183 189.324 -352.674C189.07 -388.649 167.734 -424.427 178.358 -458.902C185.497 -482.065 206.514 -499.347 229.735 -506.716C252.948 -514.078 278.086 -512.689 301.876 -507.92" stroke="#FFF7F7" stroke-miterlimit="10"/>
<path d="M339.464 426.101C368.156 403.516 367.596 357.006 347.551 326.523C327.985 296.764 295.361 278.453 265.798 258.677C236.579 239.131 207.95 213.893 201.872 180.192C194.142 137.106 225.4 93.9184 217.207 49.685C210.603 14.5131 181.99 -10.724 151.568 -24.8969C134.085 -33.0352 113.882 -35.8681 95.091 -41.8602C15.4201 -67.2879 -50.8131 -13.907 -102.596 -50.2249C-158.271 -89.3067 -160.25 -137.921 -152.622 -163.343C-142.958 -195.559 -106.258 -265.615 -23.5015 -255.3C10.6178 -251.045 45.9216 -248.187 80.502 -253.195C131.46 -260.464 178.25 -303.591 179.149 -354.29C179.766 -389.368 160.186 -424.778 170.57 -458.918C177.628 -482.287 197.749 -499.962 220.187 -508.393C242.626 -516.823 267.735 -517.197 291.764 -513.693" stroke="#FFF7F7" stroke-miterlimit="10"/>
<path d="M337.096 426.161C365.608 401.912 366.31 354.482 346.115 322.716C325.92 290.949 293.928 273.615 263.794 254.355C233.66 235.096 205.523 211.825 198.144 179.459C188.784 138.1 216.861 95.474 208.357 51.5163C201.456 15.8457 174.764 -10.4592 145.163 -26.3398C127.864 -35.6202 107.397 -39.8427 87.978 -46.3216C10.9769 -72.0049 -53.7995 -21.3872 -104.513 -56.8248C-158.639 -94.712 -161.788 -141.944 -154.787 -167.486C-146.02 -199.489 -110.499 -266.744 -30.7799 -258.692C2.63035 -255.313 37.5618 -253.49 71.8009 -258.603C121.397 -265.833 166.806 -307.028 168.945 -355.906C170.439 -390.095 152.609 -425.131 162.737 -458.934C169.723 -482.518 188.955 -500.592 210.596 -510.085C232.677 -519.762 257.347 -521.728 281.607 -519.482" stroke="#FFF7F7" stroke-miterlimit="10"/>
<path d="M334.726 426.222C363.067 400.301 365.015 351.98 344.679 318.908C325.726 288.086 292.494 268.762 261.797 250.026C231.1 231.291 203.102 209.764 194.424 178.733C183.433 139.086 208.262 97.0569 199.512 53.3549C192.27 17.1843 167.538 -10.2237 138.772 -27.7677C121.649 -38.2125 100.932 -43.7949 80.8635 -50.7686C6.51376 -76.6057 -56.7943 -28.8604 -106.439 -63.4176C-159.015 -100.11 -163.333 -145.959 -156.96 -171.623C-149.061 -203.41 -114.71 -267.916 -38.0521 -262.076C-5.31387 -259.581 29.204 -258.866 63.0989 -264.012C111.317 -271.327 155.385 -310.472 158.74 -357.536C161.119 -390.843 145.111 -425.473 154.919 -458.965C161.882 -482.739 180.169 -501.259 201.018 -511.777C221.867 -522.295 246.965 -526.252 271.457 -525.278" stroke="#FFF7F7" stroke-miterlimit="10"/>
<path d="M332.366 426.275C360.534 398.682 363.714 349.47 343.243 315.1C324.575 283.76 291.076 263.909 259.793 245.704C228.51 227.499 200.682 207.703 190.689 178.006C178.076 140.08 199.656 98.6322 190.661 55.2007C183.078 18.5299 160.307 -10.0249 132.36 -29.189C115.414 -40.8127 94.4391 -47.7334 73.7426 -55.2086C2.01853 -81.1052 -59.8032 -36.3195 -108.371 -70.0035C-159.391 -105.509 -164.872 -149.953 -159.14 -175.753C-152.116 -207.318 -118.896 -269.124 -45.3385 -265.446C-13.2646 -263.841 20.8298 -264.17 54.3898 -269.399C101.241 -276.711 143.971 -313.909 148.536 -359.138C151.808 -391.584 137.548 -425.796 147.101 -458.966C154.005 -482.94 171.391 -501.918 191.448 -513.447C211.505 -524.976 236.591 -530.753 261.322 -531.044" stroke="#FFF7F7" stroke-miterlimit="10"/>
<path d="M329.997 426.335C357.979 397.07 362.406 346.968 341.808 311.293C323.416 279.442 289.658 259.057 257.797 241.375C227.821 224.745 198.203 205.655 186.969 177.28C172.644 141.1 191.043 100.215 181.825 57.0323C173.887 19.861 153.1 -9.8766 125.977 -30.624C109.209 -43.4558 87.9826 -51.678 66.6514 -59.6622C-2.47263 -85.524 -62.7748 -43.7992 -110.267 -76.5954C-159.737 -110.906 -166.38 -153.96 -161.283 -179.888C-155.12 -211.231 -123 -270.395 -52.5879 -268.822C-21.1633 -268.121 12.5072 -269.48 45.7105 -274.8C91.1944 -282.095 132.617 -317.372 138.361 -360.753C142.549 -392.346 130.021 -426.14 139.298 -458.982C146.129 -483.155 162.628 -502.606 181.893 -515.131C202.34 -528.417 226.247 -535.268 251.195 -536.832" stroke="#FFF7F7" stroke-miterlimit="10"/>
<path d="M327.629 426.396C355.439 395.458 361.081 344.479 340.372 307.485C322.249 275.13 288.241 254.19 255.785 237.046C225.636 221.127 195.767 203.593 183.227 176.547C167.271 142.094 182.415 101.782 172.967 58.8705C164.679 21.2063 145.886 -9.75035 119.565 -32.0599C102.982 -46.1069 81.4956 -55.6089 59.5302 -64.1166C-7.01823 -89.8787 -65.784 -51.2729 -112.2 -83.1959C-160.113 -116.305 -167.912 -157.96 -163.455 -184.025C-158.147 -215.138 -127.101 -271.739 -59.8599 -272.207C-29.0544 -272.423 4.15459 -274.79 37.0089 -280.208C81.1253 -287.486 121.27 -320.858 128.164 -362.376C133.268 -393.13 122.458 -426.491 131.487 -459.005C138.253 -483.385 153.859 -503.331 172.323 -516.816C192.221 -531.339 215.872 -539.784 241.06 -542.612" stroke="#FFF7F7" stroke-miterlimit="10"/>
<path d="M325.26 426.456C352.891 393.854 359.743 341.99 338.929 303.684C321.075 270.826 286.838 249.323 253.774 232.731C223.466 217.509 193.325 201.554 179.5 175.828C161.898 143.101 173.787 103.379 164.116 60.7164C155.473 22.5516 138.704 -9.65237 113.167 -33.4806C96.7864 -48.7716 75.016 -59.5176 52.4241 -68.556C-11.5663 -94.1457 -68.7705 -58.7385 -114.11 -89.7736C-160.474 -121.688 -169.413 -161.945 -165.613 -188.147C-161.151 -219.022 -131.162 -273.133 -67.1313 -275.576C-36.9223 -276.732 -4.19766 -280.085 28.3147 -285.594C71.0707 -292.848 109.961 -324.335 117.974 -363.977C124.024 -393.905 114.902 -426.821 123.676 -459.014C130.376 -483.6 145.077 -504.056 162.76 -518.493C182.112 -534.283 205.514 -544.3 230.932 -548.386" stroke="#FFF7F7" stroke-miterlimit="10"/>
<path d="M322.899 426.509C350.358 392.236 358.419 339.502 337.501 299.87C319.894 266.515 285.443 244.435 251.785 228.395C221.318 213.87 190.912 199.485 175.787 175.095C156.555 144.096 165.173 104.947 155.287 62.5555C146.28 23.8973 131.558 -9.57528 106.784 -34.9156C90.6125 -51.4576 68.5505 -63.4259 45.3179 -73.0099C-16.1389 -98.3623 -71.7571 -66.2186 -116.028 -96.3735C-160.835 -127.1 -170.915 -165.944 -167.778 -192.291C-164.141 -222.92 -135.191 -274.642 -74.3953 -278.968C-44.7674 -281.077 -12.5354 -285.395 19.6209 -291.01C61.0089 -298.232 98.6893 -327.847 107.784 -365.608C114.795 -394.71 107.355 -427.187 115.873 -459.044C122.5 -483.83 136.295 -504.825 153.198 -520.184C171.988 -537.256 195.147 -548.823 220.798 -554.181" stroke="#FFF7F7" stroke-miterlimit="10"/>
<path d="M320.531 426.57C347.811 390.616 357.065 337.027 336.057 296.069C318.704 262.224 284.041 239.553 249.774 224.08C219.155 210.245 188.476 197.439 172.044 174.375C151.182 145.103 156.523 106.535 146.429 64.3938C137.051 25.2346 124.399 -9.52777 100.372 -36.3368C84.4172 -54.1515 62.0548 -67.3059 38.1968 -77.4498C-20.7504 -102.514 -74.7591 -73.6701 -117.96 -102.959C-161.218 -132.491 -172.425 -169.922 -169.966 -196.413C-167.146 -226.804 -139.224 -276.218 -81.6894 -282.331C-52.6269 -285.422 -20.9179 -290.677 10.904 -296.39C50.9316 -303.587 87.4314 -331.33 97.5719 -367.202C105.566 -395.499 99.7691 -427.518 108.033 -459.038C114.587 -484.039 127.468 -505.565 143.605 -521.847C161.82 -540.216 184.765 -553.317 210.64 -559.94" stroke="#FFF7F7" stroke-miterlimit="10"/>
<path d="M318.162 426.63C345.263 389.012 355.711 334.552 334.621 292.261C317.5 257.934 282.654 234.658 247.777 219.751C217.001 206.598 186.063 195.371 168.324 173.65C145.831 146.105 147.887 108.125 137.592 66.2402C127.844 26.5946 117.284 -9.47876 93.9812 -37.7644C78.2587 -56.8514 55.5659 -71.1781 31.0977 -81.896C-25.3567 -106.615 -77.7385 -81.1425 -119.871 -109.537C-161.58 -137.874 -173.898 -173.891 -172.124 -200.534C-170.115 -230.68 -143.202 -277.887 -88.9467 -285.7C-60.4262 -289.809 -29.2489 -295.965 2.21693 -301.783C40.8835 -308.941 76.2474 -334.825 87.3892 -368.81C96.3966 -396.302 92.2058 -427.855 100.236 -459.046C106.717 -484.246 118.665 -506.342 134.057 -523.524C151.682 -543.204 174.413 -557.824 200.527 -565.712" stroke="#FFF7F7" stroke-miterlimit="10"/>
<path d="M315.803 426.684C342.731 387.394 354.351 332.085 333.195 288.447C316.312 253.63 281.268 229.748 245.782 215.422C214.863 202.938 183.651 193.317 164.598 172.916C140.489 147.099 139.246 109.706 128.743 68.0714C118.616 27.9321 110.171 -9.45904 87.5851 -39.1997C72.1097 -59.5731 49.0709 -75.0433 23.993 -86.3498C-29.9849 -110.679 -80.7236 -88.6225 -121.787 -116.136C-161.94 -143.272 -175.369 -177.89 -174.288 -204.678C-173.081 -234.584 -147.174 -279.687 -96.2238 -289.091C-68.2366 -294.254 -37.6003 -301.26 -6.48294 -307.191C30.815 -314.303 65.0946 -338.333 77.1938 -370.432C87.2505 -397.111 84.6372 -428.214 92.4201 -459.076C98.8282 -484.49 109.835 -507.148 124.481 -525.215C141.503 -546.222 164.041 -562.355 190.379 -571.508" stroke="#FFF7F7" stroke-miterlimit="10"/>
<path d="M313.434 426.744C340.176 385.782 352.981 329.624 331.751 284.646C315.092 249.353 279.882 224.838 243.778 211.1C212.709 199.277 181.231 191.256 160.871 172.197C135.138 148.1 130.596 111.295 119.906 69.9176C109.402 29.2844 103.094 -9.43101 81.1949 -40.6276C65.9814 -62.2869 42.5735 -78.8794 16.8866 -90.7892C-34.6384 -114.694 -83.7724 -96.0022 -123.705 -122.722C-162.355 -148.591 -176.834 -181.866 -176.453 -208.807C-176.027 -238.466 -151.143 -281.59 -103.488 -292.468C-76.0247 -298.736 -45.9458 -306.548 -15.1769 -312.592C20.7596 -319.65 53.9988 -341.826 66.9966 -372.041C78.1249 -397.912 77.0594 -428.552 84.6017 -459.078C90.9295 -484.699 100.988 -507.926 114.911 -526.885C131.321 -549.226 153.667 -566.856 180.244 -577.274" stroke="#FFF7F7" stroke-miterlimit="10"/>
<path d="M311.065 426.804C337.635 384.17 351.597 327.163 330.315 280.838C313.873 245.063 278.502 219.921 241.774 206.779C210.569 195.616 178.81 189.195 157.15 171.471C129.795 149.094 121.945 112.884 111.062 71.7565C100.172 30.6365 96.0314 -9.41696 74.7965 -42.0481C59.8601 -65.0076 36.0599 -82.6865 9.77963 -95.2282C-39.301 -118.671 -86.7674 -103.46 -125.617 -129.299C-164.466 -155.138 -178.286 -185.842 -178.611 -212.928C-178.967 -242.341 -155.116 -283.603 -110.753 -295.83C-83.8117 -303.261 -54.2853 -311.814 -23.8719 -317.978C10.7106 -324.989 42.9455 -345.287 56.806 -373.642C69.0495 -398.689 69.4956 -428.889 76.7904 -459.086C83.0378 -484.914 92.1259 -508.719 105.34 -528.555C121.11 -552.231 143.3 -571.364 170.101 -583.047" stroke="#FFF7F7" stroke-miterlimit="10"/>
<path d="M308.697 426.865C335.088 382.566 350.206 324.709 328.88 277.031C312.654 240.772 277.132 214.983 239.77 202.457C208.416 191.94 176.398 187.128 153.415 170.745C124.437 150.088 113.28 114.472 102.211 73.6025C90.9354 31.9957 88.9765 -9.39538 68.3918 -43.4762C53.7395 -67.7283 29.524 -86.4724 2.65924 -99.6824C-44.0082 -122.621 -89.7681 -110.941 -127.548 -135.899C-163.099 -159.379 -179.743 -189.839 -180.791 -217.072C-181.912 -246.252 -159.134 -285.755 -118.039 -299.214C-91.6393 -307.861 -62.6528 -317.095 -32.5803 -323.379C0.640176 -330.322 31.9222 -348.748 46.602 -375.257C60.0041 -399.466 61.9039 -429.241 68.9728 -459.102C75.1322 -485.13 83.2507 -509.527 95.7708 -530.239C110.887 -555.265 132.934 -575.872 159.967 -588.827" stroke="#FFF7F7" stroke-miterlimit="10"/>
<path d="M306.336 426.918C332.555 380.947 348.815 322.241 327.444 273.223C311.428 236.488 275.755 210.036 237.774 198.128C206.285 188.258 173.986 185.059 149.696 170.019C119.102 151.075 104.63 116.061 93.3683 75.4412C81.6997 33.3401 81.9442 -9.38057 62.002 -44.904C47.6491 -70.4629 22.988 -90.2439 -4.43909 -104.129C-48.7014 -126.542 -92.7398 -118.406 -129.451 -142.484C-163.445 -164.777 -181.164 -193.814 -182.941 -221.201C-184.82 -250.14 -163.163 -288.01 -125.288 -302.59C-99.4562 -312.541 -70.969 -322.367 -41.2591 -328.78C-9.39315 -335.66 20.9715 -352.178 36.4275 -376.872C51.0312 -400.211 54.3416 -429.593 61.177 -459.109C67.2491 -485.352 74.3898 -510.32 86.2161 -531.922C100.655 -558.292 122.575 -580.387 149.847 -594.607" stroke="#FFF7F7" stroke-miterlimit="10"/>
<path d="M303.967 426.978C330.008 379.328 347.409 319.786 326.001 269.408C310.186 232.204 274.369 205.083 235.762 193.799C204.133 184.553 171.566 182.984 145.954 169.286C113.738 152.047 95.9502 117.648 84.5175 77.2724C72.4486 34.6841 74.9194 -9.38733 55.5974 -46.3467C41.5656 -73.2044 16.4208 -93.9868 -11.5522 -108.59C-53.4329 -130.441 -95.7334 -125.893 -131.376 -149.091C-163.813 -170.196 -182.592 -197.826 -185.113 -225.352C-187.736 -254.05 -167.268 -290.392 -132.573 -305.989C-107.343 -317.325 -79.3223 -327.648 -49.9674 -334.195C-19.4564 -341 10.0337 -355.577 26.2236 -378.502C42.0642 -400.934 46.75 -429.96 53.3524 -459.147C59.3441 -485.597 65.4853 -511.143 76.632 -533.622C90.3947 -561.335 112.195 -584.924 139.691 -600.41" stroke="#FFF7F7" stroke-miterlimit="10"/>
<path d="M301.6 427.039C327.46 377.724 345.996 317.339 324.559 265.608C308.953 227.927 272.993 200.122 233.759 189.477C201.995 180.863 169.17 180.873 142.227 168.567C108.42 152.976 87.2853 119.251 75.6671 79.1184C63.1978 36.0429 67.9015 -9.35733 49.2003 -47.7672C35.4896 -75.9237 9.83812 -97.6864 -18.6656 -113.022C-58.1798 -134.297 -98.6803 -133.423 -133.3 -155.669C-164.134 -175.644 -184.019 -201.808 -187.285 -229.474C-190.55 -257.139 -171.451 -292.842 -139.844 -309.358C-115.3 -322.184 -87.6687 -332.892 -58.6683 -339.589C-29.5123 -346.318 -0.868369 -358.925 16.0272 -380.111C33.147 -401.589 39.1658 -430.305 45.5424 -459.155C51.4391 -485.813 56.5807 -511.937 67.0702 -535.298C80.1269 -564.356 101.829 -589.432 129.564 -606.182" stroke="#FFF7F7" stroke-miterlimit="10"/>
<path d="M299.238 427.092C324.927 376.105 344.574 314.884 323.13 261.793C307.719 223.636 271.623 195.139 231.762 185.148C199.858 177.144 166.75 178.797 138.499 167.833C103.069 153.963 78.6129 120.832 66.8233 80.9572C53.9459 37.4015 60.9123 -9.34111 42.7949 -49.1954C29.4054 -78.6506 3.22332 -101.343 -25.7795 -117.469C-62.9578 -138.14 -101.675 -140.896 -135.219 -162.254C-164.503 -181.034 -185.419 -205.804 -189.45 -233.602C-193.547 -261.834 -175.742 -295.376 -147.117 -312.728C-123.343 -327.134 -96.0163 -338.136 -67.3632 -344.975C-38.7101 -351.814 -11.745 -362.198 5.83673 -381.711C24.2776 -402.178 31.5728 -430.643 37.7311 -459.163C43.5257 -486.036 47.6674 -512.724 57.4995 -536.968C69.8427 -567.363 91.4688 -593.932 119.428 -611.948" stroke="#FFF7F7" stroke-miterlimit="10"/>
<path d="M296.871 427.153C322.373 374.493 343.154 312.444 321.695 257.985C306.471 219.359 270.255 190.157 229.767 180.819C197.729 173.433 164.338 176.729 134.788 167.101C97.7282 154.942 69.8747 122.448 57.9887 82.7889C44.6141 38.7797 53.9324 -9.33197 36.4136 -50.6301C23.3745 -81.3833 -3.4056 -104.971 -32.8765 -121.929C-67.7264 -141.989 -104.652 -148.383 -137.127 -168.86C-164.862 -186.446 -186.808 -209.822 -191.606 -237.753C-196.404 -265.684 -180.153 -297.979 -154.371 -316.126C-131.496 -332.218 -104.332 -343.394 -76.0477 -350.397C-49.6028 -356.945 -22.5982 -365.464 -4.34336 -383.348C15.4381 -402.736 23.9467 -431.033 29.9298 -459.193C35.5783 -486.282 38.7492 -513.534 47.9463 -538.666C59.5612 -570.399 81.1116 -598.462 109.303 -617.75" stroke="#FFF7F7" stroke-miterlimit="10"/>
<path d="M294.502 427.213C319.833 372.882 341.636 310.023 320.252 254.185C305.162 215.11 268.871 185.174 227.755 176.505C195.569 169.72 161.902 174.683 131.052 166.389C92.3618 155.958 61.2311 124.044 49.1443 84.6424C35.3917 40.1393 46.9568 -9.28596 30.0153 -52.0506C17.3267 -84.1016 -10.0829 -108.527 -39.9833 -126.368C-72.5424 -145.796 -107.647 -155.841 -139.046 -175.445C-165.224 -191.844 -188.185 -213.825 -193.772 -241.882C-199.295 -269.674 -184.729 -300.572 -161.651 -319.502C-139.839 -337.382 -112.673 -348.615 -84.7642 -355.791C-59.6678 -362.24 -33.4933 -368.635 -14.5555 -384.957C6.58553 -403.185 16.3539 -431.37 22.0969 -459.209C27.6727 -486.512 29.799 -514.314 38.3616 -540.35C49.2407 -573.414 70.7306 -602.985 99.1535 -623.53" stroke="#FFF7F7" stroke-miterlimit="10"/>
<path d="M292.133 427.273C317.292 371.27 340.274 307.555 318.816 250.378C303.965 210.812 267.503 180.163 225.751 172.183C193.432 166.001 159.475 172.614 127.317 165.663C86.9969 156.944 52.5808 125.633 40.2861 86.4808C26.1625 41.4913 39.9675 -9.25513 23.6104 -53.4787C11.2723 -86.8276 -16.8138 -112.019 -47.1044 -130.808C-77.388 -149.589 -110.648 -163.306 -140.979 -182.016C-165.6 -197.212 -189.583 -217.821 -195.952 -245.996C-202.189 -273.576 -189.496 -303.127 -168.937 -322.857C-148.379 -342.588 -121.022 -353.815 -93.4739 -361.163C-69.719 -367.506 -44.3913 -371.719 -24.7684 -386.536C-2.26349 -403.524 8.77489 -431.679 14.2703 -459.189C19.7658 -486.699 20.848 -515.066 28.7756 -541.991C38.9041 -576.386 60.3406 -607.457 88.9953 -629.274" stroke="#FFF7F7" stroke-miterlimit="10"/>
</g>
<defs>
<clipPath id="clip0_107_1561">
<rect width="299.754" height="238.937" fill="white" transform="translate(0.246582)"/>
</clipPath>
</defs>
</svg>
