<svg width="168" height="19" fill="none" xmlns="http://www.w3.org/2000/svg"><path d="M0 18.557L2.487 4.422h1.896l-.06 1.52A4.96 4.96 0 015.784 4.7c.58-.343 1.29-.514 2.132-.514.816 0 1.52.185 2.113.553a3.722 3.722 0 011.402 1.52c.329.632.493 1.343.493 2.132 0 .856-.145 1.652-.434 2.39a5.854 5.854 0 01-1.185 1.914 5.61 5.61 0 01-1.816 1.303 5.453 5.453 0 01-2.23.454c-.751 0-1.403-.178-1.955-.533-.553-.355-.948-.757-1.185-1.204l-1.026 5.843H0zm6.238-5.922c.685 0 1.29-.171 1.817-.514a3.608 3.608 0 001.243-1.381c.316-.593.474-1.257.474-1.994 0-.79-.23-1.442-.69-1.955-.461-.526-1.087-.79-1.876-.79a3.23 3.23 0 00-1.816.534c-.54.355-.968.835-1.284 1.44-.302.593-.454 1.264-.454 2.014 0 .777.237 1.415.71 1.915.475.487 1.1.73 1.876.73zm9.632 1.816c-1.106 0-1.916-.257-2.429-.77a2.54 2.54 0 01-.75-1.836c0-1.08.44-1.928 1.322-2.547.895-.618 2.073-.927 3.534-.927h2.567l.02-.178c.039-.184.059-.375.059-.573 0-.566-.171-.993-.514-1.283-.342-.29-.79-.434-1.342-.434a3.08 3.08 0 00-1.6.434 2.253 2.253 0 00-1.026 1.244h-2.073c.198-.71.54-1.316 1.027-1.816A4.724 4.724 0 0116.422 4.6a5.796 5.796 0 012.191-.415c1.198 0 2.113.277 2.744.83.632.539.948 1.296.948 2.27 0 .145-.006.296-.02.454 0 .145-.02.296-.059.454l-1.046 6.021h-1.876l.158-1.638a4.75 4.75 0 01-1.46 1.342c-.58.355-1.29.533-2.133.533zm.71-1.698a2.8 2.8 0 001.48-.395 3.687 3.687 0 001.126-1.085c.303-.448.52-.941.651-1.481h-2.33c-.789 0-1.414.158-1.875.474-.46.316-.69.743-.69 1.283 0 .395.144.697.434.908.29.197.69.296 1.204.296zm6.468 1.461l1.718-9.792h1.895l-.138 1.757a4.87 4.87 0 011.698-1.441c.684-.368 1.454-.553 2.31-.553l-.395 2.192h-.573c-.58 0-1.112.092-1.6.276a2.76 2.76 0 00-1.243.888c-.342.422-.572.994-.69 1.718l-.89 4.955h-2.092zm11.682 0c-.855 0-1.533-.171-2.033-.513-.487-.356-.73-.954-.73-1.797 0-.29.032-.598.098-.928l.849-4.797h-1.56l.316-1.757h1.56l.69-2.487h1.837l-.434 2.487h2.763L37.77 6.18h-2.763l-.85 4.797c-.039.185-.058.35-.058.494 0 .355.098.605.296.75.197.145.526.217.987.217h1.303l-.316 1.777H34.73zm13.466.237c-.83 0-1.566-.184-2.211-.553a4.21 4.21 0 01-1.5-1.54c-.356-.658-.534-1.401-.534-2.23 0-.843.145-1.626.435-2.35a5.998 5.998 0 011.243-1.895 5.683 5.683 0 011.856-1.244 5.782 5.782 0 012.29-.454c.843 0 1.58.185 2.211.553a3.874 3.874 0 011.52 1.5c.369.632.553 1.37.553 2.212a6.17 6.17 0 01-.454 2.369 6.066 6.066 0 01-1.263 1.914 5.669 5.669 0 01-1.856 1.264 5.69 5.69 0 01-2.29.454zm.276-1.796a2.98 2.98 0 001.738-.534 3.848 3.848 0 001.243-1.46c.303-.619.454-1.317.454-2.093 0-.816-.236-1.448-.71-1.895a2.262 2.262 0 00-1.659-.691c-.645 0-1.23.184-1.757.553-.513.355-.921.842-1.224 1.46-.302.606-.454 1.297-.454 2.073 0 .816.23 1.455.691 1.915a2.363 2.363 0 001.678.671zm6.804 1.559l1.42-8.035h-1.4l.315-1.757h1.402l.237-1.421c.197-1.066.605-1.83 1.224-2.29C59.092.237 59.889 0 60.862 0h1.027l-.316 1.777h-.71c-.461 0-.81.098-1.047.296-.237.184-.395.5-.474.948l-.237 1.401h2.251L61.04 6.18h-2.25l-1.422 8.035h-2.093zm16.464-.845c-.053.398-.259.76-.573 1.013-.624.522-1.542.522-2.001-.017a1.249 1.249 0 01-.278-.996l1.438-10.212c.059-.384.248-.736.537-.996.623-.556 1.558-.556 2.034-.017a1.282 1.282 0 01.278 1.013l-1.434 10.212zm7.792-.001a1.567 1.567 0 01-.573 1.013c-.624.522-1.542.522-2.002-.017a1.252 1.252 0 01-.278-.996l1.443-10.212c.058-.384.248-.736.537-.996.623-.556 1.558-.556 2.034-.017a1.291 1.291 0 01.28 1.013l-1.44 10.212z" fill="#061117"/><path d="M75.482 6.833a1.185 1.185 0 01.951.428c.443.535.312 1.471-.295 1.994a1.645 1.645 0 01-1.066.408h-4.248a1.268 1.268 0 01-.952-.392c-.475-.535-.344-1.47.28-2.026a1.61 1.61 0 011.066-.428h4.264v.016zm13.827 7.858h-6.657a1.23 1.23 0 01-.95-.408 1.25 1.25 0 01-.28-.997l1.41-10.031c.056-.386.248-.74.542-.997a1.577 1.577 0 011.065-.428h6.658a1.185 1.185 0 01.918.408 1.203 1.203 0 01.262.98 1.542 1.542 0 01-.557.981 1.615 1.615 0 01-1.017.393h-5.216L85.16 6.91h4.626a1.173 1.173 0 01.918.392 1.15 1.15 0 01.262.98 1.54 1.54 0 01-.558.98c-.284.24-.644.373-1.016.376h-4.625l-.329 2.336h5.22a1.186 1.186 0 01.92.409 1.206 1.206 0 01.261.98 1.542 1.542 0 01-1.524 1.324l-.005.003zm12.577.086a1.165 1.165 0 01-1.05-.589l-2.477-3.757-3.51 3.79c-.442.458-.886.556-1.18.556a1.174 1.174 0 01-1.144-.864 1.16 1.16 0 01-.022-.509c.044-.323.187-.626.41-.865l4.117-4.297-2.853-4.249a1.365 1.365 0 01-.18-.88 1.59 1.59 0 01.537-.998c.475-.408 1.165-.523 1.673-.245.184.091.337.233.442.409l2.444 3.758 3.51-3.791c.476-.589 1.558-.703 2.066-.13a1.158 1.158 0 01.279.979 1.515 1.515 0 01-.377.801l-4.133 4.329 2.887 4.279a1.104 1.104 0 01.18.849 1.68 1.68 0 01-.537.997 1.508 1.508 0 01-1.082.428v-.001zm13.024-.001a1.324 1.324 0 01-.752-.23 1.22 1.22 0 01-.449-.616l-.606-2.19h-4.753l-1.214 2.173c-.151.262-.365.48-.623.637-.644.376-1.396.278-1.788-.18a1.214 1.214 0 01-.246-.996c.04-.206.113-.404.215-.588l5.642-9.966c.17-.293.399-.547.672-.749.305-.22.674-.334 1.05-.326h.163c.347-.013.686.104.952.326.219.197.379.452.459.735l2.837 9.966c.064.19.081.391.049.588a1.737 1.737 0 01-.525.997 1.48 1.48 0 01-1.082.428l-.001-.01zm-5.035-5.735h2.477l-.82-2.973-1.657 2.973zm17.942 5.733a1.457 1.457 0 01-.966-.343 1.474 1.474 0 01-.492-.882l-1.132-6.405-2.936 6.418a2.069 2.069 0 01-.744.869c-.656.458-1.492.442-2 .017a1.52 1.52 0 01-.492-.867L117.202 3.6a1.643 1.643 0 01-.017-.49c.042-.387.23-.743.525-.997.537-.474 1.427-.535 1.918-.083.201.202.338.458.395.736l1.164 7.042 3.152-7.004c.147-.323.38-.6.672-.8.607-.409 1.378-.393 1.87 0 .249.2.414.485.465.8l1.181 7.01 3.148-7.042c.131-.3.341-.558.607-.75.608-.456 1.477-.39 1.887.083a1.239 1.239 0 01.246 1.03 2.898 2.898 0 01-.131.427l-4.683 9.97a2.24 2.24 0 01-.752.883c-.29.238-.657.365-1.033.36h.001zm14.745-.001a1.32 1.32 0 01-.752-.229 1.211 1.211 0 01-.443-.62l-.609-2.19h-4.756l-1.214 2.174a1.79 1.79 0 01-.623.636c-.645.377-1.396.279-1.788-.18a1.213 1.213 0 01-.246-.995c.04-.206.113-.405.215-.588l5.641-9.966c.171-.293.4-.548.673-.749a1.73 1.73 0 011.05-.326h.163c.347-.013.686.103.951.326.22.197.379.452.46.735l2.837 9.966c.064.189.081.39.049.588a1.74 1.74 0 01-.525.997c-.29.279-.679.432-1.082.428l-.001-.007zm-5.047-5.734h2.476l-.82-2.974-1.656 2.974zm16.61 5.735a1.16 1.16 0 01-1.049-.588l-4.188-6.584 3.329-.033 3.345 4.95a1.126 1.126 0 01.18.851c-.059.38-.243.73-.524.996a1.616 1.616 0 01-1.099.409h.006z" fill="#061117"/><path d="M146.5 14.772a1.225 1.225 0 01-.951-.408 1.176 1.176 0 01-.262-.996l1.426-10.114c.054-.385.245-.738.537-.997a1.575 1.575 0 011.065-.427h3.871c1.657 0 2.886.359 3.657 1.078.804.749 1.132 1.732.951 2.941-.147 1.03-.966 4.362-5.461 4.362h-2.767l-.442 3.17c-.055.398-.26.76-.575 1.013-.297.24-.667.373-1.049.375v.003zm2.46-7.335h2.333c.821 0 1.477-.147 1.953-.441a1.349 1.349 0 00.688-1.03c.065-.44-.033-.749-.312-.98-.229-.18-.751-.392-2.017-.392h-2.251l-.394 2.843zm16.023 7.255h-6.658a1.225 1.225 0 01-.95-.408 1.195 1.195 0 01-.263-.997l1.411-10.031c.054-.386.245-.739.537-.997.294-.272.68-.425 1.082-.428h6.658a1.181 1.181 0 01.918.408 1.212 1.212 0 01.263.98 1.54 1.54 0 01-.558.981 1.611 1.611 0 01-1.016.393h-5.23l-.322 2.319h4.625a1.172 1.172 0 01.918.392 1.156 1.156 0 01.263.98 1.543 1.543 0 01-.558.98 1.6 1.6 0 01-1.017.376h-4.63l-.328 2.336h5.231a1.182 1.182 0 01.918.409 1.214 1.214 0 01.263.98 1.537 1.537 0 01-.559.98 1.638 1.638 0 01-.999.344l.001.003z" fill="#061117"/></svg>