<svg width="84" height="10" fill="none" xmlns="http://www.w3.org/2000/svg"><path d="M0 9.404l1.244-7.068h.947l-.03.76c.198-.25.442-.457.731-.622.29-.17.645-.256 1.066-.256.408 0 .76.092 1.056.276.303.184.537.438.701.76.165.316.247.671.247 1.066 0 .428-.072.826-.217 1.195a2.926 2.926 0 01-.592.957c-.257.276-.56.494-.908.651a2.726 2.726 0 01-1.116.228c-.375 0-.7-.09-.977-.267-.277-.178-.474-.378-.592-.602l-.514 2.922H0zm3.12-2.962c.341 0 .644-.085.907-.256.264-.171.47-.402.622-.691.158-.296.237-.629.237-.997 0-.395-.115-.72-.345-.977-.23-.264-.543-.395-.938-.395-.336 0-.638.089-.908.266-.27.178-.484.418-.642.72a2.18 2.18 0 00-.227 1.008c0 .388.119.707.355.957.237.244.55.365.938.365zm4.815.908c-.553 0-.958-.128-1.215-.384a1.27 1.27 0 01-.375-.918c0-.54.22-.965.662-1.274.447-.31 1.036-.464 1.767-.464h1.283l.01-.089c.02-.092.03-.187.03-.286 0-.283-.086-.497-.257-.641-.171-.145-.395-.218-.672-.218-.29 0-.556.073-.8.218a1.123 1.123 0 00-.512.621H6.819a2.08 2.08 0 01.513-.908c.244-.256.537-.45.879-.582a2.898 2.898 0 011.096-.207c.598 0 1.056.138 1.372.414.316.27.473.648.473 1.135 0 .073-.003.148-.01.227 0 .073-.01.148-.029.227l-.523 3.011h-.938l.08-.82c-.192.27-.435.494-.731.672-.29.178-.645.267-1.066.267zm.355-.848a1.4 1.4 0 00.74-.198c.224-.138.412-.319.563-.543.151-.223.26-.47.326-.74H8.754c-.395 0-.708.079-.938.237a.74.74 0 00-.345.641c0 .198.072.35.217.455.145.098.345.148.602.148zm3.234.73l.859-4.896h.948l-.07.879c.224-.303.507-.543.85-.721a2.397 2.397 0 011.154-.276l-.197 1.095h-.287c-.29 0-.556.046-.8.138a1.38 1.38 0 00-.62.445c-.172.21-.287.497-.346.858l-.445 2.478h-1.046zm5.841 0c-.428 0-.766-.085-1.017-.257-.243-.177-.365-.477-.365-.898 0-.145.017-.3.05-.464l.424-2.398h-.78l.158-.879h.78l.345-1.244h.918l-.217 1.244h1.382l-.158.879h-1.382l-.424 2.398c-.02.092-.03.175-.03.247 0 .178.05.303.148.375.099.072.264.109.494.109h.651l-.158.888h-.819zm6.733.118c-.415 0-.783-.092-1.106-.276a2.105 2.105 0 01-.75-.77 2.31 2.31 0 01-.266-1.115c0-.421.072-.813.217-1.175a2.827 2.827 0 011.55-1.569 2.89 2.89 0 011.145-.227c.42 0 .79.092 1.105.276.323.178.576.428.76.75.184.316.277.685.277 1.106 0 .42-.076.816-.227 1.184a3.033 3.033 0 01-.632.958c-.263.27-.573.48-.928.631-.349.152-.73.228-1.145.228zm.138-.898c.323 0 .612-.089.869-.266.263-.185.47-.428.622-.73a2.36 2.36 0 00.227-1.047c0-.408-.119-.724-.356-.948a1.13 1.13 0 00-.829-.345c-.322 0-.615.092-.878.276a1.86 1.86 0 00-.612.73 2.286 2.286 0 00-.227 1.037c0 .408.115.727.345.958.237.223.517.335.84.335zm3.402.78l.71-4.017h-.7l.158-.879h.7l.119-.71c.099-.534.303-.915.612-1.146.31-.237.707-.355 1.194-.355h.514l-.158.888h-.356c-.23 0-.405.05-.523.148-.118.093-.197.25-.237.474l-.118.701h1.125l-.158.879h-1.125l-.71 4.017h-1.047zm8.232-.422a.788.788 0 01-.286.506c-.312.261-.771.261-1.001-.008a.624.624 0 01-.14-.498l.72-5.106a.838.838 0 01.269-.498c.311-.278.779-.278 1.017-.009a.642.642 0 01.139.507L35.87 6.81zm3.896 0a.785.785 0 01-.287.506c-.312.261-.77.261-1-.009a.624.624 0 01-.14-.497l.722-5.106a.838.838 0 01.269-.498c.311-.278.779-.278 1.017-.009a.646.646 0 01.139.507l-.72 5.106z" fill="#fff"/><path d="M37.74 3.542a.592.592 0 01.477.214c.22.267.155.735-.148.997a.822.822 0 01-.533.203h-2.124a.634.634 0 01-.476-.195c-.238-.268-.172-.736.14-1.013a.802.802 0 01.533-.214h2.132v.008zm6.914 3.929h-3.328a.614.614 0 01-.475-.204.622.622 0 01-.14-.499l.705-5.015a.82.82 0 01.271-.499.789.789 0 01.533-.214h3.328a.593.593 0 01.46.205.6.6 0 01.13.49.771.771 0 01-.278.49.807.807 0 01-.509.196h-2.607l-.165 1.16h2.313a.587.587 0 01.46.196.574.574 0 01.13.49.77.77 0 01-.278.49.8.8 0 01-.509.188h-2.312l-.164 1.168h2.61a.592.592 0 01.46.205.603.603 0 01.13.49.771.771 0 01-.762.662l-.002.001zm6.289.042a.582.582 0 01-.525-.294L49.18 5.34l-1.755 1.896c-.221.229-.443.277-.59.277a.587.587 0 01-.573-.432.58.58 0 01-.01-.254.791.791 0 01.205-.433l2.058-2.148-1.426-2.124a.683.683 0 01-.09-.44.795.795 0 01.268-.5c.238-.204.582-.26.836-.122a.532.532 0 01.221.204l1.223 1.88 1.755-1.896c.237-.294.779-.352 1.033-.065a.577.577 0 01.14.49.761.761 0 01-.19.4L50.22 4.238l1.443 2.139a.552.552 0 01.09.424.84.84 0 01-.268.499.755.755 0 01-.541.214zm6.512 0a.607.607 0 01-.6-.423l-.304-1.095h-2.376l-.607 1.087a.892.892 0 01-.312.318c-.322.188-.698.14-.894-.09a.61.61 0 01-.123-.498.994.994 0 01.108-.294l2.82-4.983c.086-.146.2-.273.337-.374a.868.868 0 01.525-.163h.081a.7.7 0 01.476.163c.11.098.19.226.23.367l1.418 4.983a.613.613 0 01.025.294.873.873 0 01-.262.499.743.743 0 01-.541.214l-.001-.005zm-2.518-2.867h1.239l-.41-1.487-.829 1.487zm8.972 2.866a.73.73 0 01-.484-.171.74.74 0 01-.245-.441l-.566-3.203-1.468 3.21c-.08.176-.21.326-.372.434-.328.228-.747.22-1 .008a.76.76 0 01-.246-.433L58.6 1.925a.849.849 0 01-.009-.245.77.77 0 01.263-.498c.268-.237.713-.268.96-.042a.73.73 0 01.196.368l.582 3.521 1.577-3.502a.98.98 0 01.336-.4c.303-.204.689-.196.934 0 .125.1.208.243.233.4l.59 3.505 1.575-3.521a.91.91 0 01.303-.374c.304-.229.738-.196.943.04a.617.617 0 01.123.515 1.402 1.402 0 01-.065.214L64.8 6.891c-.084.178-.213.33-.375.442a.794.794 0 01-.517.18zm7.371 0a.66.66 0 01-.375-.114.607.607 0 01-.222-.31l-.304-1.095H68l-.607 1.087a.892.892 0 01-.312.318c-.322.188-.698.139-.894-.09a.61.61 0 01-.123-.498.994.994 0 01.108-.294l2.82-4.983c.086-.146.2-.274.337-.374a.868.868 0 01.525-.164h.081a.7.7 0 01.476.164c.11.098.19.225.23.367l1.418 4.983c.032.095.04.196.025.294a.873.873 0 01-.262.499.77.77 0 01-.542.214v-.004zm-2.523-2.867h1.239l-.41-1.487-.829 1.487zm8.306 2.867a.58.58 0 01-.525-.294l-2.094-3.292 1.665-.016 1.672 2.475a.562.562 0 01.09.425.87.87 0 01-.262.498.807.807 0 01-.55.204h.004z" fill="#fff"/><path d="M73.25 7.512a.614.614 0 01-.476-.205.591.591 0 01-.13-.498l.712-5.056a.82.82 0 01.269-.499.789.789 0 01.532-.214h1.936c.828 0 1.443.18 1.828.54.403.374.566.865.476 1.47-.073.515-.483 2.181-2.73 2.181h-1.384l-.221 1.585a.785.785 0 01-.287.506.842.842 0 01-.525.188v.002zm1.23-3.668h1.167c.41 0 .738-.074.976-.22a.673.673 0 00.344-.516c.033-.22-.017-.374-.156-.49-.115-.09-.376-.196-1.009-.196h-1.125l-.197 1.422zm8.011 3.627h-3.328a.614.614 0 01-.476-.204.592.592 0 01-.131-.498l.705-5.016a.819.819 0 01.269-.498.807.807 0 01.541-.214H83.4a.592.592 0 01.459.204.6.6 0 01.131.49.771.771 0 01-.278.49.807.807 0 01-.509.196H80.59l-.162 1.16h2.313a.586.586 0 01.459.196.575.575 0 01.132.49.77.77 0 01-.28.49.799.799 0 01-.508.188h-2.315l-.164 1.168h2.615a.593.593 0 01.46.205.602.602 0 01.13.49.77.77 0 01-.778.662v.001z" fill="#fff"/></svg>