<svg width="48" height="48" viewBox="0 0 48 48" fill="none" xmlns="http://www.w3.org/2000/svg">
<path d="M30.7199 39.888H8.99991C7.18791 39.888 5.71191 38.412 5.71191 36.6V5.98801C5.71191 4.17601 7.18791 2.70001 8.99991 2.70001H32.7599C34.5719 2.70001 36.0479 4.17601 36.0479 5.98801V18.972" stroke="black" stroke-width="2.5" stroke-linecap="round" stroke-linejoin="round"/>
<path d="M11.3154 22.344H20.6634" stroke="black" stroke-width="2.5" stroke-linecap="round" stroke-linejoin="round"/>
<path d="M11.3154 28.596H17.7474" stroke="black" stroke-width="2.5" stroke-linecap="round" stroke-linejoin="round"/>
<path d="M11.3154 16.416H26.5554" stroke="black" stroke-width="2.5" stroke-linecap="round" stroke-linejoin="round"/>
<path d="M11.3154 10.476H24.1674" stroke="black" stroke-width="2.5" stroke-linecap="round" stroke-linejoin="round"/>
<path d="M40.9563 33.048V45.12L36.0483 40.524L31.1523 45.12V33.276" stroke="black" stroke-width="2.5" stroke-linecap="round" stroke-linejoin="round"/>
<path d="M36.048 34.824C40.26 34.824 43.68 31.404 43.68 27.192C43.68 22.98 40.26 19.56 36.048 19.56C31.836 19.56 28.416 22.98 28.416 27.192C28.416 31.404 31.836 34.824 36.048 34.824Z" stroke="black" stroke-width="2.5"/>
</svg>
